<svg xmlns="http://www.w3.org/2000/svg" xmlns:xlink="http://www.w3.org/1999/xlink" width="4472" height="1412pt" viewBox="0 0 3354.49 1412"><g id="graph0" class="graph" transform="scale(1 1) rotate(0) translate(4 1408)"><title>foogrph</title><polygon fill="#fff" stroke="transparent" points="-4 4 -4 -1408 3350.494 -1408 3350.494 4 -4 4"/><g id="node1" class="node"><title>audino</title><ellipse cx="1475.347" cy="-18" fill="none" stroke="#000" rx="34.394" ry="18"/><text x="1475.347" y="-14.3" fill="#000" font-family="Times,serif" font-size="14" text-anchor="middle">audino</text></g><g id="node2" class="node"><title>bagon</title><ellipse cx="1246.347" cy="-954" fill="none" stroke="#000" rx="32.494" ry="18"/><text x="1246.347" y="-950.3" fill="#000" font-family="Times,serif" font-size="14" text-anchor="middle">bagon</text></g><g id="node3" class="node"><title>nosepass</title><ellipse cx="1144.347" cy="-882" fill="none" stroke="#000" rx="42.494" ry="18"/><text x="1144.347" y="-878.3" fill="#000" font-family="Times,serif" font-size="14" text-anchor="middle">nosepass</text></g><g id="edge1" class="edge"><title>bagon-&gt;nosepass</title><path fill="none" stroke="#000" d="M1226.1947,-939.7751C1211.4614,-929.3752 1191.2265,-915.0917 1174.5627,-903.329"/><polygon fill="#000" stroke="#000" points="1176.41 -900.349 1166.222 -897.442 1172.374 -906.068 1176.41 -900.349"/></g><g id="node29" class="node"><title>sableye</title><ellipse cx="1303.347" cy="-378" fill="none" stroke="#000" rx="37.093" ry="18"/><text x="1303.347" y="-374.3" fill="#000" font-family="Times,serif" font-size="14" text-anchor="middle">sableye</text></g><g id="edge90" class="edge"><title>nosepass-&gt;sableye</title><path fill="none" stroke="#000" d="M1170.5025,-867.7114C1185.4271,-858.2857 1203.3058,-844.6202 1214.3466,-828 1273.8792,-738.3832 1276.3466,-701.5886 1276.3466,-594 1276.3466,-594 1276.3466,-594 1276.3466,-522 1276.3466,-480.9969 1287.0527,-434.534 1294.9816,-405.7459"/><polygon fill="#000" stroke="#000" points="1298.389 -406.558 1297.752 -395.982 1291.655 -404.647 1298.389 -406.558"/></g><g id="node30" class="node"><title>scolipede</title><ellipse cx="1402.347" cy="-378" fill="none" stroke="#000" rx="44.393" ry="18"/><text x="1402.347" y="-374.3" fill="#000" font-family="Times,serif" font-size="14" text-anchor="middle">scolipede</text></g><g id="edge91" class="edge"><title>nosepass-&gt;scolipede</title><path fill="none" stroke="#000" d="M1177.9331,-870.8171C1227.4763,-851.9525 1314.3466,-808.7827 1314.3466,-738 1314.3466,-738 1314.3466,-738 1314.3466,-522 1314.3466,-480.6022 1316.172,-466.9581 1338.3466,-432 1346.3673,-419.3554 1358.2942,-408.1442 1369.6856,-399.2599"/><polygon fill="#000" stroke="#000" points="1371.882 -401.988 1377.822 -393.215 1367.708 -396.369 1371.882 -401.988"/></g><g id="node31" class="node"><title>scrafty</title><ellipse cx="698.347" cy="-1098" fill="none" stroke="#000" rx="34.394" ry="18"/><text x="698.347" y="-1094.3" fill="#000" font-family="Times,serif" font-size="14" text-anchor="middle">scrafty</text></g><g id="edge92" class="edge"><title>nosepass-&gt;scrafty</title><path fill="none" stroke="#000" d="M1116.3216,-895.5726C1038.2526,-933.3819 818.4399,-1039.8382 732.9598,-1081.2367"/><polygon fill="#000" stroke="#000" points="731.402 -1078.102 723.927 -1085.611 734.453 -1084.402 731.402 -1078.102"/></g><g id="node32" class="node"><title>seaking</title><ellipse cx="1172.347" cy="-378" fill="none" stroke="#000" rx="37.894" ry="18"/><text x="1172.347" y="-374.3" fill="#000" font-family="Times,serif" font-size="14" text-anchor="middle">seaking</text></g><g id="edge93" class="edge"><title>nosepass-&gt;seaking</title><path fill="none" stroke="#000" d="M1148.8346,-863.8014C1162.1232,-809.3039 1200.3466,-647.8653 1200.3466,-594 1200.3466,-594 1200.3466,-594 1200.3466,-522 1200.3466,-480.9444 1189.244,-434.4951 1181.0214,-405.7243"/><polygon fill="#000" stroke="#000" points="1184.331 -404.571 1178.148 -395.967 1177.616 -406.549 1184.331 -404.571"/></g><g id="node33" class="node"><title>sealeo</title><ellipse cx="706.347" cy="-378" fill="none" stroke="#000" rx="32.494" ry="18"/><text x="706.347" y="-374.3" fill="#000" font-family="Times,serif" font-size="14" text-anchor="middle">sealeo</text></g><g id="edge94" class="edge"><title>nosepass-&gt;sealeo</title><path fill="none" stroke="#000" d="M1110.0486,-871.238C1083.4863,-862.0245 1046.4386,-847.2067 1017.3466,-828 850.5212,-717.8612 747.7739,-484.6007 716.5187,-405.1582"/><polygon fill="#000" stroke="#000" points="719.78 -403.889 712.901 -395.831 713.254 -406.42 719.78 -403.889"/></g><g id="node34" class="node"><title>silcoon</title><ellipse cx="793.347" cy="-378" fill="none" stroke="#000" rx="36.294" ry="18"/><text x="793.347" y="-374.3" fill="#000" font-family="Times,serif" font-size="14" text-anchor="middle">silcoon</text></g><g id="edge95" class="edge"><title>nosepass-&gt;silcoon</title><path fill="none" stroke="#000" d="M1117.2558,-868.0005C1068.7802,-838.822 967.6887,-767.2518 908.3466,-684 843.4885,-593.0098 805.5056,-463.162 795.0495,-406.394"/><polygon fill="#000" stroke="#000" points="798.473 -405.644 793.371 -396.359 791.569 -406.799 798.473 -405.644"/></g><g id="node35" class="node"><title>simisear</title><ellipse cx="1648.347" cy="-810" fill="none" stroke="#000" rx="40.094" ry="18"/><text x="1648.347" y="-806.3" fill="#000" font-family="Times,serif" font-size="14" text-anchor="middle">simisear</text></g><g id="edge96" class="edge"><title>nosepass-&gt;simisear</title><path fill="none" stroke="#000" d="M1184.7391,-876.2296C1276.5601,-863.1124 1500.6597,-831.0981 1599.8004,-816.9352"/><polygon fill="#000" stroke="#000" points="1600.441 -820.379 1609.845 -815.5 1599.451 -813.45 1600.441 -820.379"/></g><g id="node36" class="node"><title>snivy</title><ellipse cx="465.347" cy="-378" fill="none" stroke="#000" rx="29.795" ry="18"/><text x="465.347" y="-374.3" fill="#000" font-family="Times,serif" font-size="14" text-anchor="middle">snivy</text></g><g id="edge97" class="edge"><title>nosepass-&gt;snivy</title><path fill="none" stroke="#000" d="M1105.9575,-874.4781C986.3568,-850.2837 623.8288,-770.9596 546.3466,-684 474.2441,-603.078 465.1625,-465.222 464.793,-406.1865"/><polygon fill="#000" stroke="#000" points="468.293 -406.119 464.812 -396.112 461.293 -406.105 468.293 -406.119"/></g><g id="node37" class="node"><title>snorlax</title><ellipse cx="619.347" cy="-378" fill="none" stroke="#000" rx="36.294" ry="18"/><text x="619.347" y="-374.3" fill="#000" font-family="Times,serif" font-size="14" text-anchor="middle">snorlax</text></g><g id="edge98" class="edge"><title>nosepass-&gt;snorlax</title><path fill="none" stroke="#000" d="M1104.368,-875.736C1066.8607,-868.5365 1010.2688,-854.186 967.3466,-828 789.8777,-719.7298 668.9744,-485.265 631.6012,-405.3353"/><polygon fill="#000" stroke="#000" points="634.637 -403.561 627.266 -395.95 628.282 -406.496 634.637 -403.561"/></g><g id="node38" class="node"><title>spoink</title><ellipse cx="1499.347" cy="-378" fill="none" stroke="#000" rx="34.394" ry="18"/><text x="1499.347" y="-374.3" fill="#000" font-family="Times,serif" font-size="14" text-anchor="middle">spoink</text></g><g id="edge99" class="edge"><title>nosepass-&gt;spoink</title><path fill="none" stroke="#000" d="M1182.497,-873.9121C1242.5448,-858.692 1352.3466,-819.6922 1352.3466,-738 1352.3466,-738 1352.3466,-738 1352.3466,-522 1352.3466,-480.6022 1349.3981,-463.4254 1376.3466,-432 1379.4082,-428.4298 1427.4611,-407.9131 1462.5821,-393.2273"/><polygon fill="#000" stroke="#000" points="1464.215 -396.339 1472.097 -389.259 1461.52 -389.878 1464.215 -396.339"/></g><g id="node39" class="node"><title>starly</title><ellipse cx="341.347" cy="-378" fill="none" stroke="#000" rx="30.595" ry="18"/><text x="341.347" y="-374.3" fill="#000" font-family="Times,serif" font-size="14" text-anchor="middle">starly</text></g><g id="edge100" class="edge"><title>nosepass-&gt;starly</title><path fill="none" stroke="#000" d="M1102.5728,-879.217C1032.9032,-873.8541 889.0201,-859.6949 771.3466,-828 688.5473,-805.6983 664.3675,-802.5412 592.3466,-756 456.1341,-667.977 376.6747,-477.0637 350.7804,-405.6764"/><polygon fill="#000" stroke="#000" points="354 -404.284 347.348 -396.038 347.406 -406.632 354 -404.284"/></g><g id="node4" class="node"><title>baltoy</title><ellipse cx="500.347" cy="-1098" fill="none" stroke="#000" rx="32.494" ry="18"/><text x="500.347" y="-1094.3" fill="#000" font-family="Times,serif" font-size="14" text-anchor="middle">baltoy</text></g><g id="node5" class="node"><title>yamask</title><ellipse cx="446.347" cy="-1026" fill="none" stroke="#000" rx="38.194" ry="18"/><text x="446.347" y="-1022.3" fill="#000" font-family="Times,serif" font-size="14" text-anchor="middle">yamask</text></g><g id="edge2" class="edge"><title>baltoy-&gt;yamask</title><path fill="none" stroke="#000" d="M487.8222,-1081.3008C481.1041,-1072.3433 472.6884,-1061.1223 465.1965,-1051.1331"/><polygon fill="#000" stroke="#000" points="467.978 -1049.009 459.178 -1043.109 462.378 -1053.209 467.978 -1049.009"/></g><g id="node21" class="node"><title>kangaskhan</title><ellipse cx="1348.347" cy="-954" fill="none" stroke="#000" rx="51.991" ry="18"/><text x="1348.347" y="-950.3" fill="#000" font-family="Times,serif" font-size="14" text-anchor="middle">kangaskhan</text></g><g id="edge171" class="edge"><title>yamask-&gt;kangaskhan</title><path fill="none" stroke="#000" d="M485.0661,-1024.6602C628.5785,-1019.5161 1129.9616,-999.913 1287.3466,-972 1291.7464,-971.2197 1296.2795,-970.2362 1300.7938,-969.1334"/><polygon fill="#000" stroke="#000" points="1301.805 -972.487 1310.587 -966.561 1300.026 -965.716 1301.805 -972.487"/></g><g id="node22" class="node"><title>kricketune</title><ellipse cx="2507.347" cy="-306" fill="none" stroke="#000" rx="48.192" ry="18"/><text x="2507.347" y="-302.3" fill="#000" font-family="Times,serif" font-size="14" text-anchor="middle">kricketune</text></g><g id="edge172" class="edge"><title>yamask-&gt;kricketune</title><path fill="none" stroke="#000" d="M423.277,-1011.4065C389.9659,-988.3322 332.3466,-940.0323 332.3466,-882 332.3466,-882 332.3466,-882 332.3466,-810 332.3466,-609.526 161.3353,-503.4805 301.3466,-360 320.6642,-340.2037 2101.8985,-312.1566 2449.0698,-306.8754"/><polygon fill="#000" stroke="#000" points="2449.212 -310.374 2459.157 -306.722 2449.105 -303.375 2449.212 -310.374"/></g><g id="node6" class="node"><title>banette</title><ellipse cx="2791.347" cy="-1386" fill="none" stroke="#000" rx="36.294" ry="18"/><text x="2791.347" y="-1382.3" fill="#000" font-family="Times,serif" font-size="14" text-anchor="middle">banette</text></g><g id="node7" class="node"><title>emboar</title><ellipse cx="2564.347" cy="-1314" fill="none" stroke="#000" rx="37.894" ry="18"/><text x="2564.347" y="-1310.3" fill="#000" font-family="Times,serif" font-size="14" text-anchor="middle">emboar</text></g><g id="edge3" class="edge"><title>banette-&gt;emboar</title><path fill="none" stroke="#000" d="M2760.2592,-1376.1397C2720.0713,-1363.3929 2649.9755,-1341.1598 2605.4312,-1327.0313"/><polygon fill="#000" stroke="#000" points="2606.377 -1323.659 2595.787 -1323.972 2604.261 -1330.332 2606.377 -1323.659"/></g><g id="node8" class="node"><title>emolga</title><ellipse cx="1986.347" cy="-90" fill="none" stroke="#000" rx="37.093" ry="18"/><text x="1986.347" y="-86.3" fill="#000" font-family="Times,serif" font-size="14" text-anchor="middle">emolga</text></g><g id="edge4" class="edge"><title>banette-&gt;emolga</title><path fill="none" stroke="#000" d="M2807.3369,-1369.6883C2838.9357,-1335.6471 2906.3466,-1253.268 2906.3466,-1170 2906.3466,-1170 2906.3466,-1170 2906.3466,-234 2906.3466,-95.2216 2743.9458,-168.4975 2607.3466,-144 2355.3116,-98.8004 2282.3556,-163.3185 2032.3466,-108 2029.3453,-107.3359 2026.2827,-106.5049 2023.2347,-105.5668"/><polygon fill="#000" stroke="#000" points="2024.237 -102.21 2013.642 -102.279 2021.967 -108.832 2024.237 -102.21"/></g><g id="node9" class="node"><title>exeggcute</title><ellipse cx="2445.347" cy="-162" fill="none" stroke="#000" rx="46.292" ry="18"/><text x="2445.347" y="-158.3" fill="#000" font-family="Times,serif" font-size="14" text-anchor="middle">exeggcute</text></g><g id="edge5" class="edge"><title>banette-&gt;exeggcute</title><path fill="none" stroke="#000" d="M2799.4274,-1368.2344C2810.8508,-1341.4535 2830.3466,-1288.8802 2830.3466,-1242 2830.3466,-1242 2830.3466,-1242 2830.3466,-594 2830.3466,-386.4595 2579.6304,-232.5565 2482.8421,-180.8752"/><polygon fill="#000" stroke="#000" points="2484.448 -177.765 2473.97 -176.195 2481.181 -183.956 2484.448 -177.765"/></g><g id="node13" class="node"><title>registeel</title><ellipse cx="1618.347" cy="-1242" fill="none" stroke="#000" rx="40.094" ry="18"/><text x="1618.347" y="-1238.3" fill="#000" font-family="Times,serif" font-size="14" text-anchor="middle">registeel</text></g><g id="edge17" class="edge"><title>emboar-&gt;registeel</title><path fill="none" stroke="#000" d="M2526.6051,-1312.2978C2367.6565,-1305.0498 1757.0271,-1276.383 1672.3466,-1260 1667.9154,-1259.1427 1663.3466,-1258.0184 1658.8303,-1256.7496"/><polygon fill="#000" stroke="#000" points="1659.687 -1253.352 1649.101 -1253.789 1657.649 -1260.049 1659.687 -1253.352"/></g><g id="node14" class="node"><title>relicanth</title><ellipse cx="1782.347" cy="-522" fill="none" stroke="#000" rx="41.693" ry="18"/><text x="1782.347" y="-518.3" fill="#000" font-family="Times,serif" font-size="14" text-anchor="middle">relicanth</text></g><g id="edge18" class="edge"><title>emboar-&gt;relicanth</title><path fill="none" stroke="#000" d="M2548.5993,-1297.3378C2526.3385,-1271.9644 2488.3466,-1221.1655 2488.3466,-1170 2488.3466,-1170 2488.3466,-1170 2488.3466,-738 2488.3466,-690.6526 2470.4316,-674.7234 2431.3466,-648 2362.5596,-600.9686 2145.1511,-591.8628 2063.3466,-576 1981.6244,-560.1532 1886.4899,-541.9151 1830.5167,-531.206"/><polygon fill="#000" stroke="#000" points="1831.013 -527.737 1820.533 -529.296 1829.697 -534.613 1831.013 -527.737"/></g><g id="node15" class="node"><title>remoraid</title><ellipse cx="2128.347" cy="-522" fill="none" stroke="#000" rx="42.793" ry="18"/><text x="2128.347" y="-518.3" fill="#000" font-family="Times,serif" font-size="14" text-anchor="middle">remoraid</text></g><g id="edge19" class="edge"><title>emboar-&gt;remoraid</title><path fill="none" stroke="#000" d="M2556.473,-1296.2135C2545.3425,-1269.4059 2526.3466,-1216.799 2526.3466,-1170 2526.3466,-1170 2526.3466,-1170 2526.3466,-738 2526.3466,-696.6022 2529.9573,-678.8452 2502.3466,-648 2458.1899,-598.6706 2267.5663,-552.0143 2176.7766,-532.107"/><polygon fill="#000" stroke="#000" points="2177.515 -528.686 2167 -529.982 2176.029 -535.526 2177.515 -528.686"/></g><g id="node16" class="node"><title>rufflet</title><ellipse cx="2028.347" cy="-738" fill="none" stroke="#000" rx="32.494" ry="18"/><text x="2028.347" y="-734.3" fill="#000" font-family="Times,serif" font-size="14" text-anchor="middle">rufflet</text></g><g id="edge20" class="edge"><title>emboar-&gt;rufflet</title><path fill="none" stroke="#000" d="M2531.1863,-1305.1177C2503.8228,-1296.6509 2464.9794,-1281.9161 2436.3466,-1260 2336.5813,-1183.6379 2109.986,-857.4923 2045.6637,-763.465"/><polygon fill="#000" stroke="#000" points="2048.485 -761.39 2039.955 -755.106 2042.705 -765.338 2048.485 -761.39"/></g><g id="edge21" class="edge"><title>emolga-&gt;audino</title><path fill="none" stroke="#000" d="M1950.4141,-84.9371C1859.029,-72.0609 1617.9913,-38.0987 1518.8671,-24.132"/><polygon fill="#000" stroke="#000" points="1519.28 -20.656 1508.889 -22.726 1518.303 -27.587 1519.28 -20.656"/></g><g id="edge22" class="edge"><title>exeggcute-&gt;emboar</title><path fill="none" stroke="#000" d="M2488.0673,-168.8477C2541.4091,-178.0989 2628.7705,-195.7785 2654.3466,-216 2794.6397,-326.9217 2792.3466,-415.1543 2792.3466,-594 2792.3466,-1170 2792.3466,-1170 2792.3466,-1170 2792.3466,-1255.3884 2676.6172,-1292.1991 2610.0612,-1306.3086"/><polygon fill="#000" stroke="#000" points="2609.326 -1302.886 2600.222 -1308.306 2610.719 -1309.746 2609.326 -1302.886"/></g><g id="edge23" class="edge"><title>exeggcute-&gt;emolga</title><path fill="none" stroke="#000" d="M2399.4367,-159.6418C2322.462,-154.8824 2162.9652,-141.5612 2032.3466,-108 2029.5433,-107.2797 2026.6797,-106.4365 2023.8203,-105.5153"/><polygon fill="#000" stroke="#000" points="2024.804 -102.151 2014.209 -102.148 2022.489 -108.758 2024.804 -102.151"/></g><g id="node10" class="node"><title>bidoof</title><ellipse cx="3126.347" cy="-1386" fill="none" stroke="#000" rx="33.595" ry="18"/><text x="3126.347" y="-1382.3" fill="#000" font-family="Times,serif" font-size="14" text-anchor="middle">bidoof</text></g><g id="node11" class="node"><title>braviary</title><ellipse cx="409.347" cy="-1098" fill="none" stroke="#000" rx="40.094" ry="18"/><text x="409.347" y="-1094.3" fill="#000" font-family="Times,serif" font-size="14" text-anchor="middle">braviary</text></g><g id="edge6" class="edge"><title>braviary-&gt;yamask</title><path fill="none" stroke="#000" d="M418.4927,-1080.2022C422.7492,-1071.9192 427.9024,-1061.8915 432.613,-1052.7248"/><polygon fill="#000" stroke="#000" points="435.848 -1054.087 437.306 -1043.593 429.622 -1050.888 435.848 -1054.087"/></g><g id="node12" class="node"><title>bronzor</title><ellipse cx="2052.347" cy="-1314" fill="none" stroke="#000" rx="38.194" ry="18"/><text x="2052.347" y="-1310.3" fill="#000" font-family="Times,serif" font-size="14" text-anchor="middle">bronzor</text></g><g id="edge7" class="edge"><title>bronzor-&gt;registeel</title><path fill="none" stroke="#000" d="M2023.7757,-1301.9522C2017.4679,-1299.6698 2010.754,-1297.5232 2004.3466,-1296 1859.9501,-1261.6736 1817.3537,-1291.6479 1672.3466,-1260 1667.9929,-1259.0498 1663.4974,-1257.8758 1659.0453,-1256.5864"/><polygon fill="#000" stroke="#000" points="1660.027 -1253.227 1649.44 -1253.621 1657.963 -1259.915 1660.027 -1253.227"/></g><g id="edge8" class="edge"><title>bronzor-&gt;relicanth</title><path fill="none" stroke="#000" d="M2041.6448,-1296.5439C2015.8476,-1252.7472 1952.3466,-1133.9738 1952.3466,-1026 1952.3466,-1026 1952.3466,-1026 1952.3466,-954 1952.3466,-804.399 1798.4015,-826.008 1751.3466,-684 1736.0828,-637.9351 1754.6129,-581.8662 1768.8837,-549.2252"/><polygon fill="#000" stroke="#000" points="1772.178 -550.436 1773.134 -539.884 1765.806 -547.537 1772.178 -550.436"/></g><g id="edge9" class="edge"><title>bronzor-&gt;remoraid</title><path fill="none" stroke="#000" d="M2065.7023,-1296.6523C2116.4349,-1230.4463 2294.3466,-995.3257 2294.3466,-954 2294.3466,-954 2294.3466,-954 2294.3466,-882 2294.3466,-741.8681 2314.683,-677.7655 2218.3466,-576 2204.1834,-561.0386 2184.9756,-548.7597 2167.9417,-539.712"/><polygon fill="#000" stroke="#000" points="2169.246 -536.448 2158.748 -535.021 2166.065 -542.684 2169.246 -536.448"/></g><g id="edge10" class="edge"><title>bronzor-&gt;rufflet</title><path fill="none" stroke="#000" d="M2049.7782,-1295.8482C2043.5868,-1250.4639 2028.3466,-1128.3536 2028.3466,-1026 2028.3466,-1026 2028.3466,-1026 2028.3466,-882 2028.3466,-841.876 2028.3466,-795.4631 2028.3466,-766.4177"/><polygon fill="#000" stroke="#000" points="2031.847 -766.185 2028.347 -756.185 2024.847 -766.185 2031.847 -766.185"/></g><g id="node49" class="node"><title>landorus</title><ellipse cx="729.347" cy="-1170" fill="none" stroke="#000" rx="40.893" ry="18"/><text x="729.347" y="-1166.3" fill="#000" font-family="Times,serif" font-size="14" text-anchor="middle">landorus</text></g><g id="edge114" class="edge"><title>registeel-&gt;landorus</title><path fill="none" stroke="#000" d="M1578.4211,-1238.7664C1434.1138,-1227.079 939.6809,-1187.035 779.7154,-1174.0794"/><polygon fill="#000" stroke="#000" points="779.92 -1170.584 769.67 -1173.266 779.355 -1177.562 779.92 -1170.584"/></g><g id="node50" class="node"><title>ledyba</title><ellipse cx="636.347" cy="-1170" fill="none" stroke="#000" rx="34.394" ry="18"/><text x="636.347" y="-1166.3" fill="#000" font-family="Times,serif" font-size="14" text-anchor="middle">ledyba</text></g><g id="edge115" class="edge"><title>registeel-&gt;ledyba</title><path fill="none" stroke="#000" d="M1578.1587,-1239.8739C1401.4878,-1230.5042 701.5838,-1193.135 679.3466,-1188 676.7025,-1187.3894 674.0134,-1186.63 671.3363,-1185.7712"/><polygon fill="#000" stroke="#000" points="672.391 -1182.431 661.797 -1182.314 670.006 -1189.012 672.391 -1182.431"/></g><g id="node51" class="node"><title>loudred</title><ellipse cx="1390.347" cy="-1170" fill="none" stroke="#000" rx="37.894" ry="18"/><text x="1390.347" y="-1166.3" fill="#000" font-family="Times,serif" font-size="14" text-anchor="middle">loudred</text></g><g id="edge116" class="edge"><title>registeel-&gt;loudred</title><path fill="none" stroke="#000" d="M1585.1934,-1231.5306C1544.5463,-1218.6947 1475.6474,-1196.9371 1431.6114,-1183.031"/><polygon fill="#000" stroke="#000" points="1432.659 -1179.692 1422.07 -1180.018 1430.552 -1186.367 1432.659 -1179.692"/></g><g id="node52" class="node"><title>lumineon</title><ellipse cx="1177.347" cy="-1170" fill="none" stroke="#000" rx="44.393" ry="18"/><text x="1177.347" y="-1166.3" fill="#000" font-family="Times,serif" font-size="14" text-anchor="middle">lumineon</text></g><g id="edge117" class="edge"><title>registeel-&gt;lumineon</title><path fill="none" stroke="#000" d="M1580.3655,-1235.799C1501.103,-1222.8582 1318.0287,-1192.9685 1228.5049,-1178.3524"/><polygon fill="#000" stroke="#000" points="1229.016 -1174.889 1218.582 -1176.732 1227.888 -1181.798 1229.016 -1174.889"/></g><g id="node53" class="node"><title>lunatone</title><ellipse cx="1552.347" cy="-1170" fill="none" stroke="#000" rx="40.893" ry="18"/><text x="1552.347" y="-1166.3" fill="#000" font-family="Times,serif" font-size="14" text-anchor="middle">lunatone</text></g><g id="edge118" class="edge"><title>registeel-&gt;lunatone</title><path fill="none" stroke="#000" d="M1603.039,-1225.3008C1594.6637,-1216.1641 1584.1298,-1204.6726 1574.8373,-1194.5353"/><polygon fill="#000" stroke="#000" points="1577.367 -1192.115 1568.03 -1187.109 1572.207 -1196.845 1577.367 -1192.115"/></g><g id="node28" class="node"><title>haxorus</title><ellipse cx="896.347" cy="-450" fill="none" stroke="#000" rx="38.194" ry="18"/><text x="896.347" y="-446.3" fill="#000" font-family="Times,serif" font-size="14" text-anchor="middle">haxorus</text></g><g id="edge119" class="edge"><title>relicanth-&gt;haxorus</title><path fill="none" stroke="#000" d="M1743.252,-515.6646C1718.1867,-511.7997 1684.9203,-507.0351 1655.3466,-504 1405.4822,-478.3572 1341.7617,-487.5457 1091.3466,-468 1041.0966,-464.0778 983.6504,-458.6618 944.195,-454.7975"/><polygon fill="#000" stroke="#000" points="944.361 -451.297 934.067 -453.801 943.676 -458.263 944.361 -451.297"/></g><g id="node40" class="node"><title>heatmor</title><ellipse cx="1838.347" cy="-594" fill="none" stroke="#000" rx="40.094" ry="18"/><text x="1838.347" y="-590.3" fill="#000" font-family="Times,serif" font-size="14" text-anchor="middle">heatmor</text></g><g id="edge120" class="edge"><title>relicanth-&gt;heatmor</title><path fill="none" stroke="#000" d="M1801.0528,-538.6058C1808.7766,-547.3072 1817.462,-558.1636 1824.6038,-567.9539"/><polygon fill="#000" stroke="#000" points="1821.797 -570.046 1830.42 -576.202 1827.517 -566.013 1821.797 -570.046"/></g><g id="node41" class="node"><title>heatran</title><ellipse cx="1136.347" cy="-450" fill="none" stroke="#000" rx="36.294" ry="18"/><text x="1136.347" y="-446.3" fill="#000" font-family="Times,serif" font-size="14" text-anchor="middle">heatran</text></g><g id="edge121" class="edge"><title>relicanth-&gt;heatran</title><path fill="none" stroke="#000" d="M1742.9241,-516.0281C1717.8739,-512.3286 1684.7433,-507.6113 1655.3466,-504 1481.0689,-482.5906 1273.1777,-462.6453 1182.477,-454.2199"/><polygon fill="#000" stroke="#000" points="1182.544 -450.711 1172.264 -453.274 1181.899 -457.681 1182.544 -450.711"/></g><g id="node23" class="node"><title>darmanitan</title><ellipse cx="1573.347" cy="-450" fill="none" stroke="#000" rx="50.892" ry="18"/><text x="1573.347" y="-446.3" fill="#000" font-family="Times,serif" font-size="14" text-anchor="middle">darmanitan</text></g><g id="edge122" class="edge"><title>remoraid-&gt;darmanitan</title><path fill="none" stroke="#000" d="M2086.916,-517.2118C2009.5168,-508.1879 1837.7295,-487.7872 1693.3466,-468 1672.6351,-465.1616 1649.9493,-461.819 1629.932,-458.7896"/><polygon fill="#000" stroke="#000" points="1630.45 -455.328 1620.037 -457.285 1629.397 -462.249 1630.45 -455.328"/></g><g id="node24" class="node"><title>deino</title><ellipse cx="1733.347" cy="-450" fill="none" stroke="#000" rx="30.595" ry="18"/><text x="1733.347" y="-446.3" fill="#000" font-family="Times,serif" font-size="14" text-anchor="middle">deino</text></g><g id="edge123" class="edge"><title>remoraid-&gt;deino</title><path fill="none" stroke="#000" d="M2088.664,-514.7667C2012.8965,-500.9559 1848.4529,-470.9814 1772.8363,-457.1981"/><polygon fill="#000" stroke="#000" points="1773.24 -453.714 1762.774 -455.364 1771.985 -460.601 1773.24 -453.714"/></g><g id="node44" class="node"><title>tirtouga</title><ellipse cx="2062.347" cy="-666" fill="none" stroke="#000" rx="38.194" ry="18"/><text x="2062.347" y="-662.3" fill="#000" font-family="Times,serif" font-size="14" text-anchor="middle">tirtouga</text></g><g id="edge124" class="edge"><title>rufflet-&gt;tirtouga</title><path fill="none" stroke="#000" d="M2036.577,-720.5708C2040.4862,-712.2927 2045.2472,-702.2104 2049.6083,-692.9752"/><polygon fill="#000" stroke="#000" points="2052.851 -694.306 2053.956 -683.769 2046.521 -691.317 2052.851 -694.306"/></g><g id="node45" class="node"><title>trapinch</title><ellipse cx="1800.347" cy="-666" fill="none" stroke="#000" rx="39.794" ry="18"/><text x="1800.347" y="-662.3" fill="#000" font-family="Times,serif" font-size="14" text-anchor="middle">trapinch</text></g><g id="edge125" class="edge"><title>rufflet-&gt;trapinch</title><path fill="none" stroke="#000" d="M1999.9312,-729.0267C1960.4504,-716.5591 1888.6958,-693.8997 1842.8367,-679.4179"/><polygon fill="#000" stroke="#000" points="1843.773 -676.043 1833.183 -676.369 1841.665 -682.718 1843.773 -676.043"/></g><g id="node46" class="node"><title>treecko</title><ellipse cx="1932.347" cy="-666" fill="none" stroke="#000" rx="36.294" ry="18"/><text x="1932.347" y="-662.3" fill="#000" font-family="Times,serif" font-size="14" text-anchor="middle">treecko</text></g><g id="edge126" class="edge"><title>rufflet-&gt;treecko</title><path fill="none" stroke="#000" d="M2008.9196,-723.4297C1995.0513,-713.0286 1976.1799,-698.875 1960.6419,-687.2215"/><polygon fill="#000" stroke="#000" points="1962.506 -684.244 1952.406 -681.044 1958.306 -689.844 1962.506 -684.244"/></g><g id="node47" class="node"><title>tyrogue</title><ellipse cx="2384.347" cy="-666" fill="none" stroke="#000" rx="37.894" ry="18"/><text x="2384.347" y="-662.3" fill="#000" font-family="Times,serif" font-size="14" text-anchor="middle">tyrogue</text></g><g id="edge127" class="edge"><title>rufflet-&gt;tyrogue</title><path fill="none" stroke="#000" d="M2059.0071,-731.799C2121.9898,-719.0609 2266.1701,-689.9009 2339.5972,-675.0504"/><polygon fill="#000" stroke="#000" points="2340.365 -678.466 2349.473 -673.053 2338.977 -671.605 2340.365 -678.466"/></g><g id="node17" class="node"><title>carracosta</title><ellipse cx="2087.347" cy="-90" fill="none" stroke="#000" rx="46.292" ry="18"/><text x="2087.347" y="-86.3" fill="#000" font-family="Times,serif" font-size="14" text-anchor="middle">carracosta</text></g><g id="edge11" class="edge"><title>carracosta-&gt;audino</title><path fill="none" stroke="#000" d="M2053.6301,-77.6767C2046.6681,-75.4981 2039.3284,-73.4624 2032.3466,-72 1844.6821,-32.6935 1615.3383,-21.8983 1520.105,-19.015"/><polygon fill="#000" stroke="#000" points="1520.066 -15.512 1509.969 -18.723 1519.864 -22.51 1520.066 -15.512"/></g><g id="node18" class="node"><title>charmeleon</title><ellipse cx="1144.347" cy="-954" fill="none" stroke="#000" rx="51.991" ry="18"/><text x="1144.347" y="-950.3" fill="#000" font-family="Times,serif" font-size="14" text-anchor="middle">charmeleon</text></g><g id="edge12" class="edge"><title>charmeleon-&gt;nosepass</title><path fill="none" stroke="#000" d="M1144.3466,-935.8314C1144.3466,-928.131 1144.3466,-918.9743 1144.3466,-910.4166"/><polygon fill="#000" stroke="#000" points="1147.847 -910.413 1144.347 -900.413 1140.847 -910.413 1147.847 -910.413"/></g><g id="node19" class="node"><title>cresselia</title><ellipse cx="2192.347" cy="-90" fill="none" stroke="#000" rx="40.893" ry="18"/><text x="2192.347" y="-86.3" fill="#000" font-family="Times,serif" font-size="14" text-anchor="middle">cresselia</text></g><g id="edge13" class="edge"><title>cresselia-&gt;audino</title><path fill="none" stroke="#000" d="M2162.316,-77.7405C2155.8232,-75.5007 2148.9291,-73.4248 2142.3466,-72 2022.9301,-46.1513 1649.4716,-26.3247 1520.0423,-20.0741"/><polygon fill="#000" stroke="#000" points="1519.872 -16.562 1509.716 -19.579 1519.537 -23.554 1519.872 -16.562"/></g><g id="node20" class="node"><title>croagunk</title><ellipse cx="1576.347" cy="-1026" fill="none" stroke="#000" rx="43.592" ry="18"/><text x="1576.347" y="-1022.3" fill="#000" font-family="Times,serif" font-size="14" text-anchor="middle">croagunk</text></g><g id="edge14" class="edge"><title>croagunk-&gt;kangaskhan</title><path fill="none" stroke="#000" d="M1541.7183,-1015.0647C1503.1172,-1002.8749 1440.4129,-983.0736 1396.9184,-969.3385"/><polygon fill="#000" stroke="#000" points="1397.714 -965.919 1387.125 -966.246 1395.606 -972.595 1397.714 -965.919"/></g><g id="edge15" class="edge"><title>croagunk-&gt;kricketune</title><path fill="none" stroke="#000" d="M1619.1687,-1022.7273C1759.9402,-1009.5454 2211.9129,-947.5277 2431.3466,-684 2518.3544,-579.5085 2515.1343,-402.8451 2510.0937,-334.335"/><polygon fill="#000" stroke="#000" points="2513.577 -333.981 2509.283 -324.296 2506.599 -334.545 2513.577 -333.981"/></g><g id="edge54" class="edge"><title>kangaskhan-&gt;nosepass</title><path fill="none" stroke="#000" d="M1311.8755,-941.1278C1276.7375,-928.7262 1223.6073,-909.9744 1186.6339,-896.9249"/><polygon fill="#000" stroke="#000" points="1187.728 -893.6 1177.133 -893.572 1185.398 -900.201 1187.728 -893.6"/></g><g id="edge55" class="edge"><title>kricketune-&gt;emboar</title><path fill="none" stroke="#000" d="M2525.894,-322.6742C2577.0441,-370.5922 2716.3466,-514.9575 2716.3466,-666 2716.3466,-1170 2716.3466,-1170 2716.3466,-1170 2716.3466,-1213.7727 2706.8146,-1228.5715 2676.3466,-1260 2657.349,-1279.5965 2629.7965,-1293.0082 2606.7738,-1301.564"/><polygon fill="#000" stroke="#000" points="2605.486 -1298.307 2597.222 -1304.937 2607.817 -1304.907 2605.486 -1298.307"/></g><g id="edge56" class="edge"><title>kricketune-&gt;emolga</title><path fill="none" stroke="#000" d="M2513.2976,-287.973C2523.0702,-254.5529 2537.9188,-182.8558 2500.3466,-144 2464.0929,-106.5077 2083.187,-119.6297 2032.3466,-108 2029.3501,-107.3146 2026.291,-106.4682 2023.2454,-105.5194"/><polygon fill="#000" stroke="#000" points="2024.252 -102.164 2013.658 -102.212 2021.969 -108.782 2024.252 -102.164"/></g><g id="edge57" class="edge"><title>kricketune-&gt;exeggcute</title><path fill="none" stroke="#000" d="M2499.6196,-288.0535C2488.9918,-263.3696 2469.7639,-218.7111 2457.2802,-189.7167"/><polygon fill="#000" stroke="#000" points="2460.34 -187.973 2453.171 -180.173 2453.911 -190.742 2460.34 -187.973"/></g><g id="edge16" class="edge"><title>darmanitan-&gt;nosepass</title><path fill="none" stroke="#000" d="M1558.7135,-467.3451C1538.4591,-493.1809 1504.3466,-544.1007 1504.3466,-594 1504.3466,-666 1504.3466,-666 1504.3466,-666 1504.3466,-760.5821 1446.8852,-778.4085 1366.3466,-828 1314.1113,-860.1638 1243.969,-873.1739 1196.6185,-878.434"/><polygon fill="#000" stroke="#000" points="1196.167 -874.962 1186.58 -879.471 1196.886 -881.925 1196.167 -874.962"/></g><g id="node25" class="node"><title>gabite</title><ellipse cx="1271.347" cy="-234" fill="none" stroke="#000" rx="32.494" ry="18"/><text x="1271.347" y="-230.3" fill="#000" font-family="Times,serif" font-size="14" text-anchor="middle">gabite</text></g><g id="edge24" class="edge"><title>gabite-&gt;emboar</title><path fill="none" stroke="#000" d="M1254.2687,-249.6554C1235.1413,-269.0379 1209.286,-302.1567 1229.3466,-324 1253.2389,-350.0155 2465.3045,-415.1465 2496.3466,-432 2612.1355,-494.8645 2678.3466,-534.2464 2678.3466,-666 2678.3466,-882 2678.3466,-882 2678.3466,-882 2678.3466,-990.55 2564.3466,-989.45 2564.3466,-1098 2564.3466,-1170 2564.3466,-1170 2564.3466,-1170 2564.3466,-1210.124 2564.3466,-1256.5369 2564.3466,-1285.5823"/><polygon fill="#000" stroke="#000" points="2560.847 -1285.815 2564.347 -1295.815 2567.847 -1285.815 2560.847 -1285.815"/></g><g id="edge25" class="edge"><title>gabite-&gt;emolga</title><path fill="none" stroke="#000" d="M1293.1915,-220.6032C1327.5676,-200.2403 1397.0157,-161.9729 1461.3466,-144 1550.7901,-119.0111 1827.764,-99.7381 1939.1984,-92.7971"/><polygon fill="#000" stroke="#000" points="1939.688 -96.274 1949.454 -92.164 1939.257 -89.287 1939.688 -96.274"/></g><g id="edge26" class="edge"><title>gabite-&gt;exeggcute</title><path fill="none" stroke="#000" d="M1295.7253,-221.8235C1301.3826,-219.4886 1307.4711,-217.3527 1313.3466,-216 1418.5168,-191.7875 2174.9211,-169.4124 2389.0168,-163.5105"/><polygon fill="#000" stroke="#000" points="2389.194 -167.007 2399.094 -163.234 2389.002 -160.01 2389.194 -167.007"/></g><g id="node26" class="node"><title>girafarig</title><ellipse cx="1279.347" cy="-306" fill="none" stroke="#000" rx="40.893" ry="18"/><text x="1279.347" y="-302.3" fill="#000" font-family="Times,serif" font-size="14" text-anchor="middle">girafarig</text></g><g id="edge27" class="edge"><title>girafarig-&gt;gabite</title><path fill="none" stroke="#000" d="M1277.3279,-287.8314C1276.4723,-280.131 1275.4549,-270.9743 1274.504,-262.4166"/><polygon fill="#000" stroke="#000" points="1277.976 -261.966 1273.392 -252.413 1271.018 -262.739 1277.976 -261.966"/></g><g id="node27" class="node"><title>gulpin</title><ellipse cx="1355.347" cy="-234" fill="none" stroke="#000" rx="33.295" ry="18"/><text x="1355.347" y="-230.3" fill="#000" font-family="Times,serif" font-size="14" text-anchor="middle">gulpin</text></g><g id="edge28" class="edge"><title>girafarig-&gt;gulpin</title><path fill="none" stroke="#000" d="M1296.5922,-289.6621C1306.8403,-279.9534 1319.9934,-267.4925 1331.2557,-256.823"/><polygon fill="#000" stroke="#000" points="1333.839 -259.197 1338.692 -249.778 1329.025 -254.115 1333.839 -259.197"/></g><g id="edge29" class="edge"><title>gulpin-&gt;nosepass</title><path fill="none" stroke="#000" d="M1360.4251,-252.0594C1364.7868,-271.6604 1368.2696,-302.969 1353.3466,-324 1326.9768,-361.1629 1287.0508,-325.4442 1257.3466,-360 1230.6973,-391.002 1238.3466,-409.1184 1238.3466,-450 1238.3466,-594 1238.3466,-594 1238.3466,-594 1238.3466,-701.5886 1217.9442,-728.7783 1176.3466,-828 1172.3439,-837.5475 1166.9052,-847.4453 1161.6476,-856.1187"/><polygon fill="#000" stroke="#000" points="1158.647 -854.316 1156.302 -864.648 1164.578 -858.033 1158.647 -854.316"/></g><g id="edge30" class="edge"><title>haxorus-&gt;sableye</title><path fill="none" stroke="#000" d="M932.4225,-443.3442C951.4269,-439.8791 975.1325,-435.6213 996.3466,-432 1095.3094,-415.1067 1120.676,-414.5238 1219.3466,-396 1232.4166,-393.5463 1246.5722,-390.6183 1259.4717,-387.8439"/><polygon fill="#000" stroke="#000" points="1260.474 -391.208 1269.503 -385.664 1258.987 -384.368 1260.474 -391.208"/></g><g id="edge31" class="edge"><title>haxorus-&gt;scolipede</title><path fill="none" stroke="#000" d="M931.8772,-442.9222C950.9368,-439.2982 974.8611,-435.0248 996.3466,-432 1152.5093,-410.0152 1195.2586,-429.5709 1349.3466,-396 1352.9279,-395.2197 1356.6045,-394.2787 1360.2705,-393.2411"/><polygon fill="#000" stroke="#000" points="1361.332 -396.577 1369.877 -390.313 1359.291 -389.881 1361.332 -396.577"/></g><g id="edge32" class="edge"><title>haxorus-&gt;scrafty</title><path fill="none" stroke="#000" d="M867.324,-461.8422C807.1482,-488.5417 674.3466,-559.5262 674.3466,-666 674.3466,-954 674.3466,-954 674.3466,-954 674.3466,-994.8567 683.8631,-1041.3576 690.9111,-1070.1939"/><polygon fill="#000" stroke="#000" points="687.538 -1071.132 693.374 -1079.975 694.326 -1069.423 687.538 -1071.132"/></g><g id="edge33" class="edge"><title>haxorus-&gt;seaking</title><path fill="none" stroke="#000" d="M929.9137,-441.2434C979.9538,-428.1894 1074.1122,-403.6264 1129.2006,-389.2555"/><polygon fill="#000" stroke="#000" points="1130.22 -392.607 1139.013 -386.696 1128.453 -385.833 1130.22 -392.607"/></g><g id="edge34" class="edge"><title>haxorus-&gt;sealeo</title><path fill="none" stroke="#000" d="M865.262,-439.2187C835.1841,-428.6549 788.3938,-411.8735 748.3466,-396 746.1065,-395.1121 743.8067,-394.1815 741.4928,-393.2308"/><polygon fill="#000" stroke="#000" points="742.595 -389.898 732.019 -389.268 739.894 -396.356 742.595 -389.898"/></g><g id="edge35" class="edge"><title>haxorus-&gt;silcoon</title><path fill="none" stroke="#000" d="M874.5029,-434.7307C859.417,-424.1851 839.1807,-410.0394 822.6896,-398.5116"/><polygon fill="#000" stroke="#000" points="824.656 -395.616 814.454 -392.755 820.645 -401.353 824.656 -395.616"/></g><g id="edge36" class="edge"><title>haxorus-&gt;simisear</title><path fill="none" stroke="#000" d="M897.0068,-468.1231C899.2122,-517.8013 908.0578,-654.4157 939.3466,-684 1034.9341,-774.3804 1452.5012,-801.3134 1598.0727,-808.0364"/><polygon fill="#000" stroke="#000" points="1597.928 -811.533 1608.076 -808.486 1598.243 -804.54 1597.928 -811.533"/></g><g id="edge37" class="edge"><title>haxorus-&gt;snivy</title><path fill="none" stroke="#000" d="M859.9712,-443.9234C779.495,-430.4795 586.9643,-398.3166 504.2224,-384.4943"/><polygon fill="#000" stroke="#000" points="504.666 -381.02 494.226 -382.824 503.512 -387.924 504.666 -381.02"/></g><g id="edge38" class="edge"><title>haxorus-&gt;snorlax</title><path fill="none" stroke="#000" d="M860.7023,-443.32C814.9598,-434.3723 733.3872,-417.1455 665.3466,-396 662.5827,-395.141 659.748,-394.1957 656.9093,-393.2017"/><polygon fill="#000" stroke="#000" points="657.933 -389.849 647.339 -389.69 655.521 -396.421 657.933 -389.849"/></g><g id="edge39" class="edge"><title>haxorus-&gt;spoink</title><path fill="none" stroke="#000" d="M933.1943,-444.7417C960.9612,-440.8892 999.9954,-435.7071 1034.3466,-432 1221.0564,-411.8505 1272.7938,-440.0572 1455.3466,-396 1458.1296,-395.3284 1460.9662,-394.5082 1463.7909,-393.5922"/><polygon fill="#000" stroke="#000" points="1465.03 -396.866 1473.253 -390.185 1462.659 -390.28 1465.03 -396.866"/></g><g id="edge40" class="edge"><title>haxorus-&gt;starly</title><path fill="none" stroke="#000" d="M858.4077,-446.8641C778.281,-439.973 586.0441,-422.0238 426.3466,-396 411.1319,-393.5207 394.519,-390.1523 380.0488,-386.9999"/><polygon fill="#000" stroke="#000" points="380.462 -383.507 369.942 -384.758 378.947 -390.341 380.462 -383.507"/></g><g id="edge128" class="edge"><title>sableye-&gt;emboar</title><path fill="none" stroke="#000" d="M1330.6662,-390.1745C1336.7149,-392.449 1343.166,-394.5604 1349.3466,-396 1533.5385,-438.903 1585.8175,-407.5025 1773.3466,-432 2147.1156,-480.8266 2564.3466,-361.0553 2564.3466,-738 2564.3466,-882 2564.3466,-882 2564.3466,-882 2564.3466,-1002.1612 2575.2344,-1031.8791 2578.3466,-1152 2579.5898,-1199.9839 2584.4185,-1212.3856 2578.3466,-1260 2577.2612,-1268.5113 2575.2504,-1277.5989 2573.0846,-1285.8445"/><polygon fill="#000" stroke="#000" points="2569.642 -1285.159 2570.316 -1295.732 2576.383 -1287.046 2569.642 -1285.159"/></g><g id="edge129" class="edge"><title>sableye-&gt;emolga</title><path fill="none" stroke="#000" d="M1332.7097,-366.5909C1353.4479,-357.4358 1380.8986,-342.9823 1400.3466,-324 1466.7858,-259.1518 1428.4507,-194.5142 1506.3466,-144 1542.2099,-120.7433 1825.4094,-100.2792 1939.2274,-92.9111"/><polygon fill="#000" stroke="#000" points="1939.624 -96.393 1949.379 -92.26 1939.176 -89.407 1939.624 -96.393"/></g><g id="edge130" class="edge"><title>sableye-&gt;exeggcute</title><path fill="none" stroke="#000" d="M1332.4911,-366.4249C1338.0734,-364.2563 1343.881,-362.0332 1349.3466,-360 1394.4039,-343.2386 1408.7421,-346.2702 1451.3466,-324 1524.1493,-285.9446 1524.0094,-243.702 1601.3466,-216 1675.082,-189.5882 2212.2388,-169.6901 2389.0739,-163.796"/><polygon fill="#000" stroke="#000" points="2389.328 -167.29 2399.206 -163.46 2389.096 -160.293 2389.328 -167.29"/></g><g id="edge131" class="edge"><title>scolipede-&gt;emboar</title><path fill="none" stroke="#000" d="M1434.5072,-390.3862C1441.6023,-392.6475 1449.1503,-394.7 1456.3466,-396 1566.6328,-415.9235 2367.8814,-374.952 2464.3466,-432 2528.5542,-469.9714 2602.3466,-663.4048 2602.3466,-738 2602.3466,-810 2602.3466,-810 2602.3466,-810 2602.3466,-1011.3309 2753.5421,-1084.8019 2654.3466,-1260 2643.7963,-1278.6339 2623.967,-1291.5392 2605.601,-1300.0487"/><polygon fill="#000" stroke="#000" points="2603.986 -1296.934 2596.187 -1304.105 2606.756 -1303.362 2603.986 -1296.934"/></g><g id="edge132" class="edge"><title>scolipede-&gt;emolga</title><path fill="none" stroke="#000" d="M1419.872,-360.9524C1429.7972,-350.7699 1442.0472,-337.2699 1451.3466,-324 1503.2604,-249.9212 1471.8748,-195.3485 1546.3466,-144 1578.2707,-121.9883 1832.6327,-101.1664 1939.4134,-93.3033"/><polygon fill="#000" stroke="#000" points="1939.858 -96.78 1949.576 -92.561 1939.348 -89.799 1939.858 -96.78"/></g><g id="edge133" class="edge"><title>scolipede-&gt;exeggcute</title><path fill="none" stroke="#000" d="M1436.2037,-366.2685C1462.074,-356.6286 1498.1342,-341.7063 1527.3466,-324 1592.4642,-284.5308 1589.5027,-243.9153 1660.3466,-216 1727.6097,-189.4957 2220.4164,-169.9001 2388.9867,-163.911"/><polygon fill="#000" stroke="#000" points="2389.271 -167.403 2399.142 -163.553 2389.024 -160.408 2389.271 -167.403"/></g><g id="edge134" class="edge"><title>scrafty-&gt;yamask</title><path fill="none" stroke="#000" d="M667.9495,-1089.3151C623.2775,-1076.5517 539.7116,-1052.6757 488.9421,-1038.1701"/><polygon fill="#000" stroke="#000" points="489.824 -1034.782 479.247 -1035.4 487.9 -1041.513 489.824 -1034.782"/></g><g id="edge135" class="edge"><title>seaking-&gt;gabite</title><path fill="none" stroke="#000" d="M1173.5844,-359.943C1175.6761,-340.6284 1181.2914,-309.8329 1196.3466,-288 1206.8311,-272.7955 1223.0506,-260.3464 1237.7279,-251.249"/><polygon fill="#000" stroke="#000" points="1239.761 -254.113 1246.602 -246.023 1236.209 -248.082 1239.761 -254.113"/></g><g id="edge136" class="edge"><title>seaking-&gt;girafarig</title><path fill="none" stroke="#000" d="M1194.2578,-363.256C1209.7734,-352.8156 1230.8113,-338.6593 1248.0859,-327.0352"/><polygon fill="#000" stroke="#000" points="1250.385 -329.707 1256.727 -321.221 1246.477 -323.899 1250.385 -329.707"/></g><g id="edge137" class="edge"><title>seaking-&gt;gulpin</title><path fill="none" stroke="#000" d="M1202.8624,-367.42C1209.9162,-364.9791 1217.3917,-362.396 1224.3466,-360 1270.9896,-343.9313 1295.3289,-359.7291 1329.3466,-324 1345.0543,-307.5021 1351.3569,-282.1163 1353.8438,-262.5065"/><polygon fill="#000" stroke="#000" points="1357.352 -262.599 1354.868 -252.3 1350.387 -261.9 1357.352 -262.599"/></g><g id="edge138" class="edge"><title>silcoon-&gt;nosepass</title><path fill="none" stroke="#000" d="M801.5424,-395.6435C818.3501,-444.9045 856.9758,-586.6788 926.3466,-684 980.8125,-760.4109 1070.4485,-826.9812 1116.0941,-859.9659"/><polygon fill="#000" stroke="#000" points="1114.192 -862.909 1124.35 -865.919 1118.286 -857.231 1114.192 -862.909"/></g><g id="edge139" class="edge"><title>simisear-&gt;registeel</title><path fill="none" stroke="#000" d="M1656.2202,-827.7865C1667.3507,-854.5941 1686.3466,-907.201 1686.3466,-954 1686.3466,-1098 1686.3466,-1098 1686.3466,-1098 1686.3466,-1143.1547 1658.6689,-1189.3049 1638.6294,-1216.8014"/><polygon fill="#000" stroke="#000" points="1635.642 -1214.95 1632.436 -1225.048 1641.24 -1219.154 1635.642 -1214.95"/></g><g id="edge140" class="edge"><title>simisear-&gt;relicanth</title><path fill="none" stroke="#000" d="M1641.4591,-792.1927C1626.4898,-750.2495 1595.9051,-643.6895 1642.3466,-576 1648.1719,-567.5095 1700.1994,-548.91 1739.1398,-535.9263"/><polygon fill="#000" stroke="#000" points="1740.327 -539.22 1748.722 -532.756 1738.129 -532.574 1740.327 -539.22"/></g><g id="edge141" class="edge"><title>simisear-&gt;remoraid</title><path fill="none" stroke="#000" d="M1674.1686,-796.0098C1713.4983,-774.2249 1790.0922,-729.9078 1849.3466,-684 1867.7373,-669.7516 1868.4129,-661.5186 1887.3466,-648 1953.0886,-601.0605 2038.6031,-560.583 2088.0957,-538.8965"/><polygon fill="#000" stroke="#000" points="2089.719 -542.007 2097.497 -534.813 2086.931 -535.587 2089.719 -542.007"/></g><g id="edge142" class="edge"><title>simisear-&gt;rufflet</title><path fill="none" stroke="#000" d="M1686.4673,-803.7456C1743.704,-794.2229 1855.1817,-775.1635 1949.3466,-756 1962.0539,-753.4139 1975.8538,-750.3562 1988.3114,-747.5018"/><polygon fill="#000" stroke="#000" points="1989.453 -750.83 1998.407 -745.167 1987.875 -744.01 1989.453 -750.83"/></g><g id="edge143" class="edge"><title>snivy-&gt;yamask</title><path fill="none" stroke="#000" d="M464.218,-395.9938C463.5918,-406.4917 462.8418,-419.9917 462.3466,-432 453.3881,-649.2422 448.3356,-911.3937 446.8297,-997.2604"/><polygon fill="#000" stroke="#000" points="443.326 -997.458 446.652 -1007.517 450.325 -997.579 443.326 -997.458"/></g><g id="edge144" class="edge"><title>spoink-&gt;kangaskhan</title><path fill="none" stroke="#000" d="M1478.0715,-392.2628C1446.3506,-415.4247 1390.3466,-464.4645 1390.3466,-522 1390.3466,-810 1390.3466,-810 1390.3466,-810 1390.3466,-851.9312 1373.7314,-898.082 1361.4018,-926.5565"/><polygon fill="#000" stroke="#000" points="1358.131 -925.297 1357.254 -935.855 1364.524 -928.149 1358.131 -925.297"/></g><g id="edge145" class="edge"><title>spoink-&gt;kricketune</title><path fill="none" stroke="#000" d="M1533.7526,-375.5424C1681.5705,-364.984 2263.6381,-323.4077 2449.7767,-310.1121"/><polygon fill="#000" stroke="#000" points="2450.178 -313.592 2459.904 -309.389 2449.68 -306.61 2450.178 -313.592"/></g><g id="edge146" class="edge"><title>starly-&gt;yamask</title><path fill="none" stroke="#000" d="M344.2504,-395.9205C358.8185,-485.8266 423.9482,-887.7696 441.8056,-997.9757"/><polygon fill="#000" stroke="#000" points="438.374 -998.681 443.429 -1007.992 445.284 -997.561 438.374 -998.681"/></g><g id="edge41" class="edge"><title>heatmor-&gt;registeel</title><path fill="none" stroke="#000" d="M1878.4093,-595.9581C1946.5845,-600.2207 2080.5923,-612.9507 2109.3466,-648 2119.4948,-660.3699 2113.3601,-668.5115 2109.3466,-684 2072.489,-826.238 1786.4423,-1085.3111 1681.3466,-1188 1670.2365,-1198.8557 1657.3086,-1210.1467 1646.0654,-1219.5805"/><polygon fill="#000" stroke="#000" points="1643.685 -1217.008 1638.226 -1226.089 1648.156 -1222.394 1643.685 -1217.008"/></g><g id="edge42" class="edge"><title>heatmor-&gt;relicanth</title><path fill="none" stroke="#000" d="M1819.8785,-577.6621C1812.1109,-568.9336 1803.3395,-557.9805 1796.1322,-548.1047"/><polygon fill="#000" stroke="#000" points="1798.889 -545.941 1790.266 -539.786 1793.169 -549.976 1798.889 -545.941"/></g><g id="edge43" class="edge"><title>heatmor-&gt;remoraid</title><path fill="none" stroke="#000" d="M1870.1691,-582.8244C1877.4179,-580.4376 1885.115,-578.0275 1892.3466,-576 1956.389,-558.0448 2031.4321,-541.654 2079.4055,-531.7542"/><polygon fill="#000" stroke="#000" points="2080.125 -535.18 2089.218 -529.742 2078.719 -528.322 2080.125 -535.18"/></g><g id="edge44" class="edge"><title>heatmor-&gt;rufflet</title><path fill="none" stroke="#000" d="M1875.6032,-601.1928C1905.8657,-608.6172 1948.166,-622.7711 1977.3466,-648 1996.7556,-664.7805 2010.3848,-690.8608 2018.6406,-710.6351"/><polygon fill="#000" stroke="#000" points="2015.43 -712.034 2022.367 -720.043 2021.938 -709.456 2015.43 -712.034"/></g><g id="edge45" class="edge"><title>heatran-&gt;nosepass</title><path fill="none" stroke="#000" d="M1137.1709,-468.013C1138.7209,-502.7943 1142.0318,-581.6278 1143.3466,-648 1144.8152,-722.1395 1144.6979,-809.5167 1144.5097,-853.5628"/><polygon fill="#000" stroke="#000" points="1141.009 -853.777 1144.461 -863.793 1148.009 -853.81 1141.009 -853.777"/></g><g id="node42" class="node"><title>ivysaur</title><ellipse cx="1746.347" cy="-1314" fill="none" stroke="#000" rx="36.294" ry="18"/><text x="1746.347" y="-1310.3" fill="#000" font-family="Times,serif" font-size="14" text-anchor="middle">ivysaur</text></g><g id="edge46" class="edge"><title>ivysaur-&gt;registeel</title><path fill="none" stroke="#000" d="M1722.2708,-1300.4574C1702.5395,-1289.3585 1674.3785,-1273.518 1652.3472,-1261.1254"/><polygon fill="#000" stroke="#000" points="1654.06 -1258.073 1643.628 -1256.221 1650.628 -1264.174 1654.06 -1258.073"/></g><g id="edge47" class="edge"><title>ivysaur-&gt;relicanth</title><path fill="none" stroke="#000" d="M1758.764,-1296.9665C1765.4032,-1286.7886 1772.9032,-1273.2886 1776.3466,-1260 1836.6974,-1027.0987 1813.8334,-948.4447 1738.3466,-720 1732.6039,-702.6209 1722.9378,-701.7182 1718.3466,-684 1705.3807,-633.9631 1738.2615,-578.5228 1761.5463,-547.2019"/><polygon fill="#000" stroke="#000" points="1764.504 -549.097 1767.813 -539.032 1758.95 -544.836 1764.504 -549.097"/></g><g id="edge48" class="edge"><title>ivysaur-&gt;remoraid</title><path fill="none" stroke="#000" d="M1774.4015,-1302.5041C1780.2898,-1300.2375 1786.4905,-1297.9573 1792.3466,-1296 1848.8007,-1277.1308 1871.9171,-1293.1638 1921.3466,-1260 1955.0111,-1237.4134 1958.4424,-1223.8621 1977.3466,-1188 2005.4364,-1134.7126 1926.0794,-1464.3 2126.3466,-684 2138.4095,-636.9994 2148.4847,-624.1341 2142.3466,-576 2141.2612,-567.4887 2139.2504,-558.4011 2137.0846,-550.1555"/><polygon fill="#000" stroke="#000" points="2140.383 -548.954 2134.316 -540.268 2133.642 -550.841 2140.383 -548.954"/></g><g id="edge49" class="edge"><title>ivysaur-&gt;rufflet</title><path fill="none" stroke="#000" d="M1775.0205,-1302.6729C1780.7511,-1300.4393 1786.7337,-1298.1288 1792.3466,-1296 1835.7322,-1279.5448 1856.6969,-1291.9498 1890.3466,-1260 1972.3643,-1182.1257 1990.3466,-1139.0987 1990.3466,-1026 1990.3466,-1026 1990.3466,-1026 1990.3466,-882 1990.3466,-840.1368 2005.5469,-793.6262 2016.7203,-765.0925"/><polygon fill="#000" stroke="#000" points="2019.979 -766.37 2020.473 -755.787 2013.487 -763.752 2019.979 -766.37"/></g><g id="node43" class="node"><title>jellicent</title><ellipse cx="1901.347" cy="-738" fill="none" stroke="#000" rx="38.993" ry="18"/><text x="1901.347" y="-734.3" fill="#000" font-family="Times,serif" font-size="14" text-anchor="middle">jellicent</text></g><g id="edge50" class="edge"><title>jellicent-&gt;tirtouga</title><path fill="none" stroke="#000" d="M1929.3907,-725.4586C1955.859,-713.6218 1995.7282,-695.7921 2024.9045,-682.7443"/><polygon fill="#000" stroke="#000" points="2026.654 -685.796 2034.354 -678.518 2023.797 -679.406 2026.654 -685.796"/></g><g id="edge51" class="edge"><title>jellicent-&gt;trapinch</title><path fill="none" stroke="#000" d="M1879.9271,-722.7307C1865.4652,-712.4212 1846.1766,-698.6709 1830.2112,-687.2896"/><polygon fill="#000" stroke="#000" points="1831.91 -684.202 1821.735 -681.247 1827.846 -689.902 1831.91 -684.202"/></g><g id="edge52" class="edge"><title>jellicent-&gt;treecko</title><path fill="none" stroke="#000" d="M1909.0095,-720.2022C1912.512,-712.0675 1916.7389,-702.2501 1920.6277,-693.2181"/><polygon fill="#000" stroke="#000" points="1923.924 -694.412 1924.664 -683.842 1917.495 -691.643 1923.924 -694.412"/></g><g id="edge53" class="edge"><title>jellicent-&gt;tyrogue</title><path fill="none" stroke="#000" d="M1936.386,-730.077C1951.945,-726.7114 1970.5105,-722.9032 1987.3466,-720 2113.3714,-698.2687 2263.1429,-679.8993 2337.5524,-671.2714"/><polygon fill="#000" stroke="#000" points="2338.008 -674.742 2347.541 -670.119 2337.206 -667.788 2338.008 -674.742"/></g><g id="edge147" class="edge"><title>tirtouga-&gt;audino</title><path fill="none" stroke="#000" d="M2047.2465,-649.3307C1967.1447,-560.9049 1592.0288,-146.8076 1497.1791,-42.1013"/><polygon fill="#000" stroke="#000" points="1499.655 -39.621 1490.347 -34.559 1494.466 -44.32 1499.655 -39.621"/></g><g id="edge148" class="edge"><title>trapinch-&gt;haxorus</title><path fill="none" stroke="#000" d="M1763.1861,-659.5696C1709.5685,-650.119 1607.4837,-631.4793 1521.3466,-612 1300.9584,-562.1609 1040.1325,-490.3669 939.1952,-462.0941"/><polygon fill="#000" stroke="#000" points="939.943 -458.669 929.369 -459.338 938.052 -465.409 939.943 -458.669"/></g><g id="edge149" class="edge"><title>trapinch-&gt;heatmor</title><path fill="none" stroke="#000" d="M1809.7399,-648.2022C1814.1115,-639.9192 1819.4039,-629.8915 1824.2419,-620.7248"/><polygon fill="#000" stroke="#000" points="1827.489 -622.071 1829.061 -611.593 1821.298 -618.803 1827.489 -622.071"/></g><g id="edge150" class="edge"><title>trapinch-&gt;heatran</title><path fill="none" stroke="#000" d="M1767.871,-655.4357C1657.5791,-619.5576 1297.5221,-502.4306 1176.4667,-463.0511"/><polygon fill="#000" stroke="#000" points="1177.427 -459.683 1166.835 -459.918 1175.262 -466.34 1177.427 -459.683"/></g><g id="edge151" class="edge"><title>tyrogue-&gt;emboar</title><path fill="none" stroke="#000" d="M2390.1482,-683.9672C2398.3496,-711.0051 2412.3466,-763.9025 2412.3466,-810 2412.3466,-1098 2412.3466,-1098 2412.3466,-1098 2412.3466,-1175.0929 2424.8031,-1200.9343 2474.3466,-1260 2487.9816,-1276.2556 2507.8319,-1288.8952 2525.423,-1297.8453"/><polygon fill="#000" stroke="#000" points="2524.384 -1301.231 2534.91 -1302.438 2527.434 -1294.93 2524.384 -1301.231"/></g><g id="edge152" class="edge"><title>tyrogue-&gt;emolga</title><path fill="none" stroke="#000" d="M2401.9725,-649.7164C2449.735,-604.0948 2580.4658,-468.8569 2616.3466,-324 2637.9479,-236.7917 2601.5144,-190.0112 2524.3466,-144 2430.1879,-87.8581 2139.2574,-132.2459 2032.3466,-108 2029.3488,-107.3202 2026.2888,-106.4778 2023.2426,-105.5318"/><polygon fill="#000" stroke="#000" points="2024.248 -102.177 2013.654 -102.229 2021.969 -108.795 2024.248 -102.177"/></g><g id="edge153" class="edge"><title>tyrogue-&gt;exeggcute</title><path fill="none" stroke="#000" d="M2390.1482,-648.0328C2398.3496,-620.9949 2412.3466,-568.0975 2412.3466,-522 2412.3466,-522 2412.3466,-522 2412.3466,-306 2412.3466,-264.6545 2425.4318,-218.2804 2435.1227,-189.6051"/><polygon fill="#000" stroke="#000" points="2438.525 -190.478 2438.509 -179.883 2431.914 -188.176 2438.525 -190.478"/></g><g id="node48" class="node"><title>jumpluff</title><ellipse cx="3220.347" cy="-1386" fill="none" stroke="#000" rx="42.494" ry="18"/><text x="3220.347" y="-1382.3" fill="#000" font-family="Times,serif" font-size="14" text-anchor="middle">jumpluff</text></g><g id="edge58" class="edge"><title>landorus-&gt;sableye</title><path fill="none" stroke="#000" d="M701.7416,-1156.4609C685.7756,-1147.2231 666.6635,-1133.4929 655.3466,-1116 633.1403,-1081.6752 636.3466,-1066.8816 636.3466,-1026 636.3466,-1026 636.3466,-1026 636.3466,-666 636.3466,-525.3665 716.7813,-478.9491 849.3466,-432 1005.0888,-376.8427 1056.082,-421.3505 1219.3466,-396 1232.6037,-393.9415 1246.9155,-391.1073 1259.904,-388.2965"/><polygon fill="#000" stroke="#000" points="1260.985 -391.642 1269.991 -386.063 1259.471 -384.808 1260.985 -391.642"/></g><g id="edge59" class="edge"><title>landorus-&gt;scolipede</title><path fill="none" stroke="#000" d="M746.2511,-1153.2927C755.6359,-1143.2236 766.8859,-1129.7236 774.3466,-1116 929.6803,-830.2719 769.7099,-621.0411 1034.3466,-432 1091.6772,-391.0463 1280.5983,-411.4165 1349.3466,-396 1352.9231,-395.198 1356.5963,-394.2415 1360.26,-393.1936"/><polygon fill="#000" stroke="#000" points="1361.328 -396.527 1369.863 -390.249 1359.276 -389.834 1361.328 -396.527"/></g><g id="edge60" class="edge"><title>landorus-&gt;scrafty</title><path fill="none" stroke="#000" d="M721.6837,-1152.2022C718.1549,-1144.0064 713.8907,-1134.1024 709.9779,-1125.0145"/><polygon fill="#000" stroke="#000" points="713.091 -1123.394 705.921 -1115.593 706.661 -1126.162 713.091 -1123.394"/></g><g id="edge61" class="edge"><title>landorus-&gt;seaking</title><path fill="none" stroke="#000" d="M698.8663,-1157.9287C671.0385,-1146.34 632.7086,-1128.7612 622.3466,-1116 596.2513,-1083.8626 598.3466,-1067.3978 598.3466,-1026 598.3466,-1026 598.3466,-1026 598.3466,-522 598.3466,-413.8573 986.4975,-386.196 1124.4257,-379.7805"/><polygon fill="#000" stroke="#000" points="1124.851 -383.265 1134.685 -379.321 1124.538 -376.272 1124.851 -383.265"/></g><g id="edge62" class="edge"><title>landorus-&gt;sealeo</title><path fill="none" stroke="#000" d="M699.0133,-1157.8072C692.6013,-1155.5911 685.8159,-1153.5077 679.3466,-1152 609.8696,-1135.8081 414.7192,-1162.1828 360.3466,-1116 277.9879,-1046.0465 294.3466,-990.0576 294.3466,-882 294.3466,-882 294.3466,-882 294.3466,-810 294.3466,-808.4226 545.0808,-432.9413 546.3466,-432 590.344,-399.2793 612.8495,-414.8273 664.3466,-396 666.6098,-395.1726 668.9272,-394.2881 671.2541,-393.3718"/><polygon fill="#000" stroke="#000" points="672.824 -396.511 680.759 -389.49 670.178 -390.031 672.824 -396.511"/></g><g id="edge63" class="edge"><title>landorus-&gt;silcoon</title><path fill="none" stroke="#000" d="M697.371,-1158.5036C655.2838,-1143.3131 586.3504,-1118.2058 584.3466,-1116 556.5106,-1085.3579 560.3466,-1067.3978 560.3466,-1026 560.3466,-1026 560.3466,-1026 560.3466,-522 560.3466,-480.6022 554.448,-460.6331 584.3466,-432 637.9287,-380.6857 676.365,-417.5827 747.3466,-396 750.1157,-395.158 752.9542,-394.2252 755.7957,-393.2401"/><polygon fill="#000" stroke="#000" points="757.177 -396.462 765.371 -389.746 754.777 -389.886 757.177 -396.462"/></g><g id="edge64" class="edge"><title>landorus-&gt;simisear</title><path fill="none" stroke="#000" d="M767.6902,-1163.205C873.6481,-1143.5196 1177.9005,-1080.8232 1409.3466,-972 1492.2751,-933.008 1578.6425,-867.0926 1621.2474,-832.5905"/><polygon fill="#000" stroke="#000" points="1623.635 -835.16 1629.171 -826.126 1619.21 -829.736 1623.635 -835.16"/></g><g id="edge65" class="edge"><title>landorus-&gt;snivy</title><path fill="none" stroke="#000" d="M699.0412,-1157.6838C692.6272,-1155.4767 685.8339,-1153.4281 679.3466,-1152 590.2397,-1132.3849 347.2928,-1165.0313 270.3466,-1116 231.3874,-1091.1746 218.3466,-1072.1966 218.3466,-1026 218.3466,-1026 218.3466,-1026 218.3466,-810 218.3466,-631.4579 379.3128,-459.6513 441.3588,-400.0586"/><polygon fill="#000" stroke="#000" points="443.913 -402.459 448.757 -393.036 439.094 -397.382 443.913 -402.459"/></g><g id="edge66" class="edge"><title>landorus-&gt;snorlax</title><path fill="none" stroke="#000" d="M699.0266,-1157.749C692.6137,-1155.5372 685.8245,-1153.4702 679.3466,-1152 601.8039,-1134.4018 392.5154,-1155.2205 323.3466,-1116 279.9679,-1091.4032 256.3466,-1075.867 256.3466,-1026 256.3466,-1026 256.3466,-1026 256.3466,-810 256.3466,-605.3368 366.7039,-568.3349 519.3466,-432 537.4307,-415.848 561.1965,-402.7595 581.0219,-393.5153"/><polygon fill="#000" stroke="#000" points="582.718 -396.59 590.396 -389.289 579.841 -390.209 582.718 -396.59"/></g><g id="edge67" class="edge"><title>landorus-&gt;spoink</title><path fill="none" stroke="#000" d="M734.4657,-1151.6727C737.0986,-1141.2978 740.0262,-1128.0284 741.3466,-1116 743.0925,-1100.0955 742.509,-1095.9577 741.3466,-1080 734.8851,-991.2962 712.3466,-970.9389 712.3466,-882 712.3466,-882 712.3466,-882 712.3466,-810 712.3466,-750.5244 1037.5697,-457.4045 1091.3466,-432 1238.3373,-362.5609 1297.5733,-435.1871 1455.3466,-396 1458.1251,-395.3099 1460.9584,-394.4763 1463.7807,-393.5509"/><polygon fill="#000" stroke="#000" points="1465.028 -396.822 1473.238 -390.125 1462.644 -390.24 1465.028 -396.822"/></g><g id="edge68" class="edge"><title>landorus-&gt;starly</title><path fill="none" stroke="#000" d="M699.3174,-1157.7339C692.8245,-1155.4946 685.93,-1153.4205 679.3466,-1152 580.8509,-1130.7471 311.3811,-1171.5993 227.3466,-1116 189.7122,-1091.1002 180.3466,-1071.1259 180.3466,-1026 180.3466,-1026 180.3466,-1026 180.3466,-522 180.3466,-455.1662 258.3776,-411.5972 305.7926,-391.2921"/><polygon fill="#000" stroke="#000" points="307.222 -394.488 315.121 -387.427 304.543 -388.021 307.222 -394.488"/></g><g id="edge69" class="edge"><title>ledyba-&gt;audino</title><path fill="none" stroke="#000" d="M602.0391,-1167.743C502.9342,-1160.9654 221.1313,-1139.7852 187.3466,-1116 150.7787,-1090.2554 142.3466,-1070.7214 142.3466,-1026 142.3466,-1026 142.3466,-1026 142.3466,-162 142.3466,-95.6617 1199.6609,-33.2679 1430.9827,-20.411"/><polygon fill="#000" stroke="#000" points="1431.265 -23.901 1441.056 -19.854 1430.878 -16.912 1431.265 -23.901"/></g><g id="edge70" class="edge"><title>loudred-&gt;darmanitan</title><path fill="none" stroke="#000" d="M1394.4133,-1151.9139C1404.2162,-1106.6795 1428.3466,-984.884 1428.3466,-882 1428.3466,-882 1428.3466,-882 1428.3466,-666 1428.3466,-583.6833 1501.8389,-509.0958 1544.1808,-472.9539"/><polygon fill="#000" stroke="#000" points="1546.527 -475.554 1551.951 -466.453 1542.036 -470.185 1546.527 -475.554"/></g><g id="edge71" class="edge"><title>loudred-&gt;deino</title><path fill="none" stroke="#000" d="M1404.0109,-1153.09C1447.5762,-1097.4105 1580.3466,-913.3375 1580.3466,-738 1580.3466,-738 1580.3466,-738 1580.3466,-666 1580.3466,-621.8588 1592.1281,-608.1758 1622.3466,-576 1645.2209,-551.6441 1665.1453,-564.0447 1688.3466,-540 1705.4938,-522.2295 1717.425,-496.6425 1724.6723,-477.2896"/><polygon fill="#000" stroke="#000" points="1727.99 -478.407 1728.038 -467.812 1721.393 -476.064 1727.99 -478.407"/></g><g id="edge72" class="edge"><title>lumineon-&gt;nosepass</title><path fill="none" stroke="#000" d="M1165.6702,-1152.4262C1144.2513,-1119.0116 1099.406,-1043.2732 1083.3466,-972 1079.8296,-956.3913 1076.7772,-950.5892 1083.3466,-936 1089.2699,-922.8455 1100.157,-911.6009 1111.112,-902.8325"/><polygon fill="#000" stroke="#000" points="1113.509 -905.411 1119.421 -896.619 1109.317 -899.805 1113.509 -905.411"/></g><g id="edge73" class="edge"><title>lunatone-&gt;emboar</title><path fill="none" stroke="#000" d="M1591.3799,-1175.5541C1750.0972,-1198.1384 2346.7248,-1283.0341 2518.0695,-1307.4151"/><polygon fill="#000" stroke="#000" points="2517.637 -1310.889 2528.031 -1308.832 2518.623 -1303.959 2517.637 -1310.889"/></g><g id="edge74" class="edge"><title>lunatone-&gt;emolga</title><path fill="none" stroke="#000" d="M1545.1607,-1152.0145C1511.9526,-1065.8678 1380.5011,-689.0234 1513.3466,-432 1523.8449,-411.6883 1642.2903,-302.0267 1660.3466,-288 1759.3298,-211.1069 1890.1613,-139.676 1951.6312,-107.6669"/><polygon fill="#000" stroke="#000" points="1953.267 -110.761 1960.536 -103.054 1950.046 -104.546 1953.267 -110.761"/></g><g id="edge75" class="edge"><title>lunatone-&gt;exeggcute</title><path fill="none" stroke="#000" d="M1566.945,-1153.1104C1585.675,-1130.2089 1617.1954,-1087.1866 1629.3466,-1044 1633.6802,-1028.598 1631.8303,-1023.8061 1629.3466,-1008 1609.776,-883.4524 1542.3466,-864.0758 1542.3466,-738 1542.3466,-738 1542.3466,-738 1542.3466,-666 1542.3466,-620.8741 1557.7275,-608.196 1589.3466,-576 1612.7588,-552.1607 1635.399,-566.8055 1655.3466,-540 1679.7528,-507.203 1674.3466,-490.8816 1674.3466,-450 1674.3466,-450 1674.3466,-450 1674.3466,-306 1674.3466,-233.154 2213.0509,-181.4762 2389.8667,-166.4762"/><polygon fill="#000" stroke="#000" points="2390.324 -169.95 2399.995 -165.624 2389.737 -162.975 2390.324 -169.95"/></g><g id="node54" class="node"><title>machamp</title><ellipse cx="1257.347" cy="-1386" fill="none" stroke="#000" rx="46.292" ry="18"/><text x="1257.347" y="-1382.3" fill="#000" font-family="Times,serif" font-size="14" text-anchor="middle">machamp</text></g><g id="node55" class="node"><title>petilil</title><ellipse cx="1221.347" cy="-1242" fill="none" stroke="#000" rx="31.396" ry="18"/><text x="1221.347" y="-1238.3" fill="#000" font-family="Times,serif" font-size="14" text-anchor="middle">petilil</text></g><g id="edge76" class="edge"><title>machamp-&gt;petilil</title><path fill="none" stroke="#000" d="M1251.2406,-1368.1267C1247.7885,-1357.6689 1243.5385,-1344.1689 1240.3466,-1332 1234.9527,-1311.4364 1230.0307,-1287.9219 1226.5484,-1270.0864"/><polygon fill="#000" stroke="#000" points="1229.945 -1269.212 1224.623 -1260.05 1223.07 -1270.53 1229.945 -1269.212"/></g><g id="node56" class="node"><title>pidgeotto</title><ellipse cx="1951.347" cy="-1314" fill="none" stroke="#000" rx="44.393" ry="18"/><text x="1951.347" y="-1310.3" fill="#000" font-family="Times,serif" font-size="14" text-anchor="middle">pidgeotto</text></g><g id="edge77" class="edge"><title>machamp-&gt;pidgeotto</title><path fill="none" stroke="#000" d="M1303.1336,-1383.5938C1430.0078,-1376.6957 1784.2397,-1355.8112 1898.3466,-1332 1901.9347,-1331.2513 1905.616,-1330.3324 1909.2851,-1329.3098"/><polygon fill="#000" stroke="#000" points="1910.336 -1332.649 1918.897 -1326.406 1908.312 -1325.948 1910.336 -1332.649"/></g><g id="node57" class="node"><title>pikachu</title><ellipse cx="38.347" cy="-1314" fill="none" stroke="#000" rx="38.194" ry="18"/><text x="38.347" y="-1310.3" fill="#000" font-family="Times,serif" font-size="14" text-anchor="middle">pikachu</text></g><g id="edge78" class="edge"><title>machamp-&gt;pikachu</title><path fill="none" stroke="#000" d="M1211.1751,-1385.6274C1022.6511,-1383.8341 310.815,-1374.3414 90.3466,-1332 86.1247,-1331.1892 81.7804,-1330.1072 77.487,-1328.8745"/><polygon fill="#000" stroke="#000" points="78.233 -1325.44 67.644 -1325.781 76.134 -1332.118 78.233 -1325.44"/></g><g id="node58" class="node"><title>pinsir</title><ellipse cx="2142.347" cy="-1314" fill="none" stroke="#000" rx="30.595" ry="18"/><text x="2142.347" y="-1310.3" fill="#000" font-family="Times,serif" font-size="14" text-anchor="middle">pinsir</text></g><g id="edge79" class="edge"><title>machamp-&gt;pinsir</title><path fill="none" stroke="#000" d="M1303.6904,-1385.0476C1456.9141,-1381.5832 1946.1242,-1367.9153 2099.3466,-1332 2102.5771,-1331.2428 2105.8759,-1330.2664 2109.138,-1329.1605"/><polygon fill="#000" stroke="#000" points="2110.593 -1332.352 2118.71 -1325.544 2108.119 -1325.804 2110.593 -1332.352"/></g><g id="node59" class="node"><title>poliwrath</title><ellipse cx="992.347" cy="-666" fill="none" stroke="#000" rx="44.393" ry="18"/><text x="992.347" y="-662.3" fill="#000" font-family="Times,serif" font-size="14" text-anchor="middle">poliwrath</text></g><g id="edge80" class="edge"><title>machamp-&gt;poliwrath</title><path fill="none" stroke="#000" d="M1211.3332,-1383.974C1020.7681,-1374.9834 303.3466,-1334.9631 303.3466,-1242 303.3466,-1242 303.3466,-1242 303.3466,-1098 303.3466,-797.5179 779.5509,-698.073 940.1689,-673.0774"/><polygon fill="#000" stroke="#000" points="940.924 -676.503 950.284 -671.537 939.871 -669.582 940.924 -676.503"/></g><g id="node60" class="node"><title>poochyena</title><ellipse cx="65.347" cy="-882" fill="none" stroke="#000" rx="48.993" ry="18"/><text x="65.347" y="-878.3" fill="#000" font-family="Times,serif" font-size="14" text-anchor="middle">poochyena</text></g><g id="edge81" class="edge"><title>machamp-&gt;poochyena</title><path fill="none" stroke="#000" d="M1211.2341,-1384.4987C1030.9178,-1378.4817 379.0466,-1355.311 289.3466,-1332 200.8504,-1309.0019 104.3466,-1333.4357 104.3466,-1242 104.3466,-1242 104.3466,-1242 104.3466,-1026 104.3466,-984.0642 88.7463,-937.5729 77.2789,-909.063"/><polygon fill="#000" stroke="#000" points="80.488 -907.665 73.427 -899.766 74.021 -910.344 80.488 -907.665"/></g><g id="node61" class="node"><title>porygon2</title><ellipse cx="1293.347" cy="-1314" fill="none" stroke="#000" rx="44.393" ry="18"/><text x="1293.347" y="-1310.3" fill="#000" font-family="Times,serif" font-size="14" text-anchor="middle">porygon2</text></g><g id="edge82" class="edge"><title>machamp-&gt;porygon2</title><path fill="none" stroke="#000" d="M1266.2455,-1368.2022C1270.3561,-1359.981 1275.3261,-1350.041 1279.8815,-1340.9301"/><polygon fill="#000" stroke="#000" points="1283.084 -1342.352 1284.425 -1331.842 1276.823 -1339.222 1283.084 -1342.352"/></g><g id="node62" class="node"><title>porygonz</title><ellipse cx="1845.347" cy="-1314" fill="none" stroke="#000" rx="44.393" ry="18"/><text x="1845.347" y="-1310.3" fill="#000" font-family="Times,serif" font-size="14" text-anchor="middle">porygonz</text></g><g id="edge83" class="edge"><title>machamp-&gt;porygonz</title><path fill="none" stroke="#000" d="M1303.5937,-1384.7533C1396.8439,-1381.49 1613.6833,-1370.1028 1791.3466,-1332 1795.1512,-1331.184 1799.0629,-1330.1933 1802.9587,-1329.1007"/><polygon fill="#000" stroke="#000" points="1803.973 -1332.451 1812.54 -1326.217 1801.956 -1325.748 1803.973 -1332.451"/></g><g id="edge101" class="edge"><title>petilil-&gt;landorus</title><path fill="none" stroke="#000" d="M1197.6743,-1229.9289C1192.4093,-1227.648 1186.7763,-1225.5079 1181.3466,-1224 1106.7142,-1203.2742 881.3703,-1182.6281 779.8693,-1174.0909"/><polygon fill="#000" stroke="#000" points="780.118 -1170.6 769.861 -1173.255 779.535 -1177.575 780.118 -1170.6"/></g><g id="edge102" class="edge"><title>petilil-&gt;ledyba</title><path fill="none" stroke="#000" d="M1198.1524,-1229.9179C1192.7633,-1227.5781 1186.9582,-1225.4163 1181.3466,-1224 964.4634,-1169.2619 896.9337,-1239.8692 679.3466,-1188 676.7069,-1187.3707 674.021,-1186.5975 671.3462,-1185.7288"/><polygon fill="#000" stroke="#000" points="672.406 -1182.39 661.812 -1182.252 670.007 -1188.966 672.406 -1182.39"/></g><g id="edge103" class="edge"><title>petilil-&gt;loudred</title><path fill="none" stroke="#000" d="M1246.6476,-1231.2209C1274.6862,-1219.2754 1320.2005,-1199.8847 1352.4867,-1186.1297"/><polygon fill="#000" stroke="#000" points="1354.22 -1189.196 1362.048 -1182.056 1351.476 -1182.756 1354.22 -1189.196"/></g><g id="edge104" class="edge"><title>petilil-&gt;lumineon</title><path fill="none" stroke="#000" d="M1210.9192,-1224.937C1205.7195,-1216.4284 1199.3141,-1205.9468 1193.497,-1196.4279"/><polygon fill="#000" stroke="#000" points="1196.36 -1194.4 1188.159 -1187.692 1190.387 -1198.05 1196.36 -1194.4"/></g><g id="edge105" class="edge"><title>petilil-&gt;lunatone</title><path fill="none" stroke="#000" d="M1250.7206,-1235.6105C1308.3272,-1223.0798 1436.5333,-1195.192 1505.7982,-1180.1253"/><polygon fill="#000" stroke="#000" points="1506.547 -1183.544 1515.574 -1177.999 1505.059 -1176.704 1506.547 -1183.544"/></g><g id="edge106" class="edge"><title>pinsir-&gt;registeel</title><path fill="none" stroke="#000" d="M2118.6888,-1302.546C2112.5204,-1299.9936 2105.7922,-1297.5792 2099.3466,-1296 1914.3667,-1250.6783 1858.8896,-1298.3836 1672.3466,-1260 1667.9259,-1259.0904 1663.3638,-1257.9324 1658.8514,-1256.6436"/><polygon fill="#000" stroke="#000" points="1659.714 -1253.247 1649.127 -1253.659 1657.66 -1259.939 1659.714 -1253.247"/></g><g id="edge107" class="edge"><title>pinsir-&gt;relicanth</title><path fill="none" stroke="#000" d="M2157.3618,-1298.1696C2179.5105,-1273.087 2218.3466,-1221.7309 2218.3466,-1170 2218.3466,-1170 2218.3466,-1170 2218.3466,-882 2218.3466,-770.2507 2206.2881,-726.085 2126.3466,-648 2044.2167,-567.7774 1906.8761,-538.0415 1833.0187,-527.4801"/><polygon fill="#000" stroke="#000" points="1833.413 -524.001 1823.031 -526.114 1832.464 -530.937 1833.413 -524.001"/></g><g id="edge108" class="edge"><title>pinsir-&gt;remoraid</title><path fill="none" stroke="#000" d="M2168.1912,-1304.2553C2188.2514,-1295.4791 2215.4133,-1280.7545 2232.3466,-1260 2322.7962,-1149.1389 2332.3466,-1097.078 2332.3466,-954 2332.3466,-954 2332.3466,-954 2332.3466,-882 2332.3466,-813.4777 2337.9594,-628.851 2294.3466,-576 2279.27,-557.7298 2220.7083,-541.6371 2177.3905,-531.8752"/><polygon fill="#000" stroke="#000" points="2178.092 -528.446 2167.573 -529.711 2176.585 -535.282 2178.092 -528.446"/></g><g id="edge109" class="edge"><title>pinsir-&gt;rufflet</title><path fill="none" stroke="#000" d="M2139.3115,-1295.8816C2127.9807,-1228.7921 2086.5343,-988.2417 2042.3466,-792 2040.4106,-783.402 2038.0819,-774.0933 2035.8844,-765.6656"/><polygon fill="#000" stroke="#000" points="2039.249 -764.699 2033.304 -755.929 2032.483 -766.492 2039.249 -764.699"/></g><g id="edge110" class="edge"><title>poliwrath-&gt;haxorus</title><path fill="none" stroke="#000" d="M980.3165,-648.3881C964.5966,-624.6871 937.1042,-580.7818 920.3466,-540 912.0747,-519.8693 905.867,-496.0302 901.8394,-477.9457"/><polygon fill="#000" stroke="#000" points="905.234 -477.082 899.721 -468.034 898.389 -478.545 905.234 -477.082"/></g><g id="edge111" class="edge"><title>poliwrath-&gt;heatmor</title><path fill="none" stroke="#000" d="M1024.4954,-653.6003C1031.2924,-651.3993 1038.4862,-649.3742 1045.3466,-648 1188.381,-619.3485 1636.0466,-601.1901 1787.6035,-595.7354"/><polygon fill="#000" stroke="#000" points="1788.127 -599.219 1797.996 -595.365 1787.877 -592.223 1788.127 -599.219"/></g><g id="edge112" class="edge"><title>poliwrath-&gt;heatran</title><path fill="none" stroke="#000" d="M1004.1307,-648.3238C1029.5186,-610.2419 1089.4742,-520.3086 1119.1263,-475.8305"/><polygon fill="#000" stroke="#000" points="1122.167 -477.579 1124.802 -467.317 1116.343 -473.696 1122.167 -477.579"/></g><g id="edge113" class="edge"><title>poochyena-&gt;audino</title><path fill="none" stroke="#000" d="M69.4906,-863.9265C75.3487,-836.7528 85.3466,-783.6844 85.3466,-738 85.3466,-738 85.3466,-738 85.3466,-162 85.3466,-117.669 91.3281,-96.3899 128.3466,-72 183.867,-35.42 1202.4136,-21.2301 1430.3494,-18.5056"/><polygon fill="#000" stroke="#000" points="1430.641 -22.003 1440.599 -18.384 1430.558 -15.003 1430.641 -22.003"/></g><g id="node63" class="node"><title>magnezone</title><ellipse cx="2897.347" cy="-1386" fill="none" stroke="#000" rx="51.191" ry="18"/><text x="2897.347" y="-1382.3" fill="#000" font-family="Times,serif" font-size="14" text-anchor="middle">magnezone</text></g><g id="edge84" class="edge"><title>magnezone-&gt;emboar</title><path fill="none" stroke="#000" d="M2858.7675,-1374.0402C2851.3586,-1371.907 2843.6371,-1369.7954 2836.3466,-1368 2757.516,-1348.5868 2664.5163,-1331.3181 2610.2197,-1321.7923"/><polygon fill="#000" stroke="#000" points="2610.671 -1318.318 2600.218 -1320.049 2609.468 -1325.214 2610.671 -1318.318"/></g><g id="edge85" class="edge"><title>magnezone-&gt;emolga</title><path fill="none" stroke="#000" d="M2907.3141,-1367.9772C2921.1105,-1341.2973 2944.3466,-1289.3363 2944.3466,-1242 2944.3466,-1242 2944.3466,-1242 2944.3466,-234 2944.3466,-195.0034 3079.7071,-221.2828 2763.3466,-144 2447.3559,-66.8075 2350.4084,-176.1576 2032.3466,-108 2029.341,-107.3559 2026.2752,-106.5393 2023.2251,-105.6112"/><polygon fill="#000" stroke="#000" points="2024.223 -102.254 2013.629 -102.341 2021.966 -108.88 2024.223 -102.254"/></g><g id="edge86" class="edge"><title>magnezone-&gt;exeggcute</title><path fill="none" stroke="#000" d="M2893.2531,-1367.9045C2885.2592,-1330.9326 2868.3466,-1243.9703 2868.3466,-1170 2868.3466,-1170 2868.3466,-1170 2868.3466,-378 2868.3466,-270.371 2784.0237,-265.2939 2688.3466,-216 2628.8636,-185.3537 2552.443,-172.0248 2501.3323,-166.2761"/><polygon fill="#000" stroke="#000" points="2501.457 -162.77 2491.143 -165.193 2500.717 -169.731 2501.457 -162.77"/></g><g id="node64" class="node"><title>mamoswine</title><ellipse cx="3020.347" cy="-1386" fill="none" stroke="#000" rx="53.891" ry="18"/><text x="3020.347" y="-1382.3" fill="#000" font-family="Times,serif" font-size="14" text-anchor="middle">mamoswine</text></g><g id="edge87" class="edge"><title>mamoswine-&gt;emboar</title><path fill="none" stroke="#000" d="M2980.5669,-1373.7127C2972.9091,-1371.6097 2964.9159,-1369.593 2957.3466,-1368 2833.7629,-1341.9916 2685.5798,-1325.536 2611.4494,-1318.2925"/><polygon fill="#000" stroke="#000" points="2611.781 -1314.808 2601.491 -1317.332 2611.109 -1321.776 2611.781 -1314.808"/></g><g id="edge88" class="edge"><title>mamoswine-&gt;emolga</title><path fill="none" stroke="#000" d="M3020.3466,-1367.8146C3020.3466,-1340.4983 3020.3466,-1287.25 3020.3466,-1242 3020.3466,-1242 3020.3466,-1242 3020.3466,-234 3020.3466,-147.3288 2931.0618,-166.4424 2847.3466,-144 2497.1372,-50.1156 2387.0646,-183.0736 2032.3466,-108 2029.3393,-107.3635 2026.2724,-106.5524 2023.2215,-105.6281"/><polygon fill="#000" stroke="#000" points="2024.218 -102.27 2013.624 -102.365 2021.965 -108.898 2024.218 -102.27"/></g><g id="edge89" class="edge"><title>mamoswine-&gt;exeggcute</title><path fill="none" stroke="#000" d="M3012.2878,-1367.7668C3001.1332,-1340.8248 2982.3466,-1288.5405 2982.3466,-1242 2982.3466,-1242 2982.3466,-1242 2982.3466,-378 2982.3466,-309.9028 2915.0127,-325.7649 2858.3466,-288 2807.2233,-253.9291 2797.7477,-237.8984 2740.3466,-216 2660.4458,-185.518 2561.6381,-171.9214 2501.0752,-166.0908"/><polygon fill="#000" stroke="#000" points="2501.239 -162.591 2490.959 -165.155 2500.594 -169.561 2501.239 -162.591"/></g><g id="node65" class="node"><title>vigoroth</title><ellipse cx="1094.347" cy="-666" fill="none" stroke="#000" rx="40.094" ry="18"/><text x="1094.347" y="-662.3" fill="#000" font-family="Times,serif" font-size="14" text-anchor="middle">vigoroth</text></g><g id="edge154" class="edge"><title>vigoroth-&gt;haxorus</title><path fill="none" stroke="#000" d="M1074.6055,-650.1018C1046.944,-627.3152 995.839,-583.3219 958.3466,-540 940.8472,-519.7798 923.8243,-494.5453 912.0572,-475.9462"/><polygon fill="#000" stroke="#000" points="914.987 -474.03 906.724 -467.4 909.049 -477.736 914.987 -474.03"/></g><g id="edge155" class="edge"><title>vigoroth-&gt;heatmor</title><path fill="none" stroke="#000" d="M1133.822,-662.1798C1259.4068,-650.0264 1649.5821,-612.2675 1788.5612,-598.8179"/><polygon fill="#000" stroke="#000" points="1788.899 -602.302 1798.515 -597.855 1788.224 -595.334 1788.899 -602.302"/></g><g id="edge156" class="edge"><title>vigoroth-&gt;heatran</title><path fill="none" stroke="#000" d="M1097.8553,-647.9555C1105.1744,-610.3144 1122.1159,-523.1867 1130.8779,-478.1246"/><polygon fill="#000" stroke="#000" points="1134.345 -478.629 1132.818 -468.145 1127.474 -477.293 1134.345 -478.629"/></g><g id="node66" class="node"><title>vulpix</title><ellipse cx="3313.347" cy="-1386" fill="none" stroke="#000" rx="33.295" ry="18"/><text x="3313.347" y="-1382.3" fill="#000" font-family="Times,serif" font-size="14" text-anchor="middle">vulpix</text></g><g id="node67" class="node"><title>wailord</title><ellipse cx="1608.347" cy="-522" fill="none" stroke="#000" rx="37.894" ry="18"/><text x="1608.347" y="-518.3" fill="#000" font-family="Times,serif" font-size="14" text-anchor="middle">wailord</text></g><g id="edge157" class="edge"><title>wailord-&gt;darmanitan</title><path fill="none" stroke="#000" d="M1599.6949,-504.2022C1595.6985,-495.981 1590.8665,-486.041 1586.4376,-476.9301"/><polygon fill="#000" stroke="#000" points="1589.54 -475.306 1582.02 -467.842 1583.244 -478.366 1589.54 -475.306"/></g><g id="edge158" class="edge"><title>wailord-&gt;deino</title><path fill="none" stroke="#000" d="M1632.4479,-508.1177C1652.4364,-496.6042 1680.9803,-480.163 1702.6106,-467.704"/><polygon fill="#000" stroke="#000" points="1704.494 -470.658 1711.412 -462.634 1701 -464.593 1704.494 -470.658"/></g><g id="node68" class="node"><title>wartortle</title><ellipse cx="2412.347" cy="-1386" fill="none" stroke="#000" rx="42.494" ry="18"/><text x="2412.347" y="-1382.3" fill="#000" font-family="Times,serif" font-size="14" text-anchor="middle">wartortle</text></g><g id="edge159" class="edge"><title>wartortle-&gt;emboar</title><path fill="none" stroke="#000" d="M2440.9366,-1372.4574C2465.5991,-1360.7751 2501.3516,-1343.8397 2528.0332,-1331.2011"/><polygon fill="#000" stroke="#000" points="2529.876 -1334.201 2537.416 -1326.757 2526.88 -1327.875 2529.876 -1334.201"/></g><g id="edge160" class="edge"><title>wartortle-&gt;emolga</title><path fill="none" stroke="#000" d="M2427.9303,-1368.9121C2494.8355,-1294.8344 2754.3466,-999.9038 2754.3466,-882 2754.3466,-882 2754.3466,-882 2754.3466,-666 2754.3466,-419.1096 2785.1634,-254.4302 2564.3466,-144 2458.3678,-91.0001 2147.976,-133.8906 2032.3466,-108 2029.347,-107.3284 2026.2856,-106.4919 2023.2385,-105.55"/><polygon fill="#000" stroke="#000" points="2024.243 -102.194 2013.648 -102.255 2021.968 -108.814 2024.243 -102.194"/></g><g id="edge161" class="edge"><title>wartortle-&gt;exeggcute</title><path fill="none" stroke="#000" d="M2404.473,-1368.2135C2393.3425,-1341.4059 2374.3466,-1288.799 2374.3466,-1242 2374.3466,-1242 2374.3466,-1242 2374.3466,-1098 2374.3466,-923.7574 2640.3466,-984.2426 2640.3466,-810 2640.3466,-810 2640.3466,-810 2640.3466,-594 2640.3466,-453.8681 2631.5463,-410.968 2564.3466,-288 2541.5939,-246.365 2501.7206,-208.2153 2474.4509,-185.0541"/><polygon fill="#000" stroke="#000" points="2476.347 -182.078 2466.425 -178.36 2471.863 -187.453 2476.347 -182.078"/></g><g id="node69" class="node"><title>whismur</title><ellipse cx="1649.347" cy="-1314" fill="none" stroke="#000" rx="42.494" ry="18"/><text x="1649.347" y="-1310.3" fill="#000" font-family="Times,serif" font-size="14" text-anchor="middle">whismur</text></g><g id="edge162" class="edge"><title>whismur-&gt;registeel</title><path fill="none" stroke="#000" d="M1641.6837,-1296.2022C1638.1812,-1288.0675 1633.9543,-1278.2501 1630.0655,-1269.2181"/><polygon fill="#000" stroke="#000" points="1633.198 -1267.643 1626.029 -1259.842 1626.769 -1270.411 1633.198 -1267.643"/></g><g id="edge163" class="edge"><title>whismur-&gt;relicanth</title><path fill="none" stroke="#000" d="M1665.2522,-1296.8766C1687.2677,-1271.3169 1724.3466,-1220.7377 1724.3466,-1170 1724.3466,-1170 1724.3466,-1170 1724.3466,-810 1724.3466,-705.9915 1672.8317,-668.0005 1721.3466,-576 1728.1285,-563.1393 1739.2996,-551.8999 1750.2415,-543.0535"/><polygon fill="#000" stroke="#000" points="1752.656 -545.614 1758.488 -536.768 1748.413 -540.047 1752.656 -545.614"/></g><g id="edge164" class="edge"><title>whismur-&gt;remoraid</title><path fill="none" stroke="#000" d="M1672.7603,-1298.9738C1705.8587,-1275.6871 1762.3466,-1227.5189 1762.3466,-1170 1762.3466,-1170 1762.3466,-1170 1762.3466,-954 1762.3466,-861.9614 1822.5722,-853.1653 1891.3466,-792 1914.0174,-771.8375 1925.3216,-774.5282 1949.3466,-756 1967.769,-741.7926 1967.1881,-731.6133 1987.3466,-720 2036.3327,-691.7793 2072.9135,-727.2282 2109.3466,-684 2140.9352,-646.5199 2138.493,-585.6615 2133.5982,-550.1742"/><polygon fill="#000" stroke="#000" points="2137.017 -549.38 2132.035 -540.029 2130.099 -550.446 2137.017 -549.38"/></g><g id="edge165" class="edge"><title>whismur-&gt;rufflet</title><path fill="none" stroke="#000" d="M1682.6659,-1302.7115C1715.2896,-1291.1602 1762.1067,-1273.0968 1776.3466,-1260 1818.1275,-1221.5731 1876.3466,-1044.1382 1876.3466,-1026 1876.3466,-1026 1876.3466,-1026 1876.3466,-882 1876.3466,-818.1988 1947.7954,-774.1945 1992.7213,-752.8315"/><polygon fill="#000" stroke="#000" points="1994.252 -755.98 2001.87 -748.617 1991.323 -749.622 1994.252 -755.98"/></g><g id="node70" class="node"><title>wingull</title><ellipse cx="1134.347" cy="-1242" fill="none" stroke="#000" rx="37.894" ry="18"/><text x="1134.347" y="-1238.3" fill="#000" font-family="Times,serif" font-size="14" text-anchor="middle">wingull</text></g><g id="edge166" class="edge"><title>wingull-&gt;landorus</title><path fill="none" stroke="#000" d="M1098.7605,-1235.6736C1025.9215,-1222.7244 859.7803,-1193.1882 777.4376,-1178.5495"/><polygon fill="#000" stroke="#000" points="777.804 -1175.06 767.346 -1176.755 776.579 -1181.952 777.804 -1175.06"/></g><g id="edge167" class="edge"><title>wingull-&gt;ledyba</title><path fill="none" stroke="#000" d="M1096.5327,-1241.0506C1017.6902,-1238.3043 830.5122,-1227.7742 679.3466,-1188 676.8812,-1187.3513 674.3715,-1186.5897 671.8657,-1185.7529"/><polygon fill="#000" stroke="#000" points="672.916 -1182.41 662.322 -1182.232 670.492 -1188.977 672.916 -1182.41"/></g><g id="edge168" class="edge"><title>wingull-&gt;loudred</title><path fill="none" stroke="#000" d="M1163.2481,-1230.3441C1169.1905,-1228.1138 1175.4372,-1225.8883 1181.3466,-1224 1237.5291,-1206.0468 1303.6238,-1189.7587 1346.209,-1179.8738"/><polygon fill="#000" stroke="#000" points="1347.022 -1183.278 1355.98 -1177.622 1345.45 -1176.457 1347.022 -1183.278"/></g><g id="edge169" class="edge"><title>wingull-&gt;lumineon</title><path fill="none" stroke="#000" d="M1144.7557,-1224.5708C1149.8413,-1216.0553 1156.0671,-1205.6308 1161.7095,-1196.183"/><polygon fill="#000" stroke="#000" points="1164.762 -1197.898 1166.884 -1187.518 1158.752 -1194.309 1164.762 -1197.898"/></g><g id="edge170" class="edge"><title>wingull-&gt;lunatone</title><path fill="none" stroke="#000" d="M1162.8442,-1229.9085C1168.8726,-1227.6851 1175.2553,-1225.5731 1181.3466,-1224 1292.594,-1195.2704 1323.6967,-1204.8843 1437.3466,-1188 1459.149,-1184.7609 1483.249,-1181.0144 1503.7309,-1177.7809"/><polygon fill="#000" stroke="#000" points="1504.444 -1181.212 1513.774 -1176.191 1503.349 -1174.298 1504.444 -1181.212"/></g></g></svg>